<svg xmlns="http://www.w3.org/2000/svg" width="625.903" height="657.344"><path d="M335.168 654.764a195.803 195.803 0 00-6.509-3.638c-6.784-3.565-6.744-3.624 2.78-4.129 4.704-.249 11.836-.965 15.85-1.591l7.298-1.139-3.458 3.116c-3.952 3.56-11.46 9.463-12.033 9.46-.212 0-1.98-.936-3.928-2.08zm-29.737-12.997a337.588 337.588 0 01-7.36-1.81 200.689 200.689 0 00-7.04-1.677c-1.936-.416-9.136-2.3-16-4.185-6.864-1.886-14.928-4.054-17.92-4.817-6.643-1.694-15.54-4.301-26.523-7.774l-8.284-2.618 6.364-1.453c7.11-1.623 25.986-9.64 25.986-9.64s.028.309 3.051 5.052c6.288 9.865 10.94 11.68 29.94 11.68h11.653l1.096 2.88c2.091 4.365 4.118 8.33 7.41 12.616 1.482 1.51 2.418 2.72 2.08 2.69-.337-.028-2.34-.454-4.453-.944zm67.974-8.442c.617-.968 2.031-3.056 3.141-4.64 3.277-4.675 6.383-11.501 7.572-16.64.611-2.64 1.233-5.257 1.382-5.815.245-.917.875-.896 6.501.214 6.248 1.234 16.346 1.262 26.39.074l3.52-.416-2.65 2.172c-4.95 4.053-9.415 7.093-14.05 9.563-2.54 1.354-7.887 4.306-11.88 6.559-10.263 5.791-19.771 10.69-20.75 10.69-.164 0 .206-.793.824-1.76zm-36.347-13.86c-.147-.143-1.158-.398-2.247-.568-1.783-.278-5-2.37-9.077-5.903-8.157-7.068 5.924-23.603 12.84-15.711 2.164 2.47 3.709 3.36 5.569-.902 2.183-5.002 3.813-4.43 8.388 2.516 2.762 4.193 3.001 7.747.81 12.025-2.43 4.744-13.969 10.799-16.283 8.543zm-142.363-4.521c-3.815-.83-9.523-2.697-29.424-9.618a5504.64 5504.64 0 00-14.08-4.88c-4.599-1.579-15.013-6.739-18.569-9.2l-2.55-1.766 9.452.405c9.978.428 14.17-.081 23.726-2.885l4.38-1.284c3.333 2.782 6.607 6.09 10.583 7.85 3.54 1.636 7.453 3.172 10.914 4.142l4.015 1.116-1.474 1.65c-4.216 4.723-4.212 4.145-.048 6.857 2.052 1.337 6.323 3.8 9.491 5.472l5.76 3.042-4.16-.03c-2.288-.018-5.895-.41-8.016-.871zm105.191-15.481c-.576-.648-1.466-2.186-1.979-3.418-1.504-3.615-10.556-12.175-20.56-19.442-.91-.66-2.137-1.554-2.725-1.984-2.663-1.947 36.428-2.054 41.69-.114 6.97 2.571 16.79 7.09 19.52 8.983l2.88 1.997-2.56.183c-12.104.866-28.554 7.145-33.29 12.706-1.851 2.175-1.97 2.219-2.976 1.089zm142.878-8.557c-1.508-3.507-1.347-4.46.754-4.46 1.517 0 8.324-6.673 11.125-10.904 1.12-1.692 2.045-2.459 2.722-2.255 1.075.323 12.025 2.119 14.786 2.425 1.73.192-8.404 7.311-21.101 14.826-7.303 4.322-6.599 4.29-8.286.368zm-196.533-4.919c-1.584-.472-3.6-.972-4.48-1.109-.88-.137-3.857-.705-6.616-1.261-7.125-1.437-14.817-1.302-21.2.372-6.799 1.783-7.384 1.55-7.384-2.938 0-8.657-1.17-12.859-4.876-17.501-4.48-5.613-4.345-6.213 1.04-4.591 2.59.78 4.016 1.053 19.516 3.747 23.178 4.028 41.744 8.46 42.836 10.227.178.288-3.752.725-8.732.972-11.065.548-10.257-.08-8.397 6.52 1.878 6.67 1.888 6.636-1.707 5.562zm121.575-7.883c-5.987-5.682-7.922-7.138-10.535-7.922-4.686-1.406-6.532-2.894-3.52-2.837 6.555.125 22.098-2.933 46.08-9.065 7.366-1.884 25.096-5.093 28.219-5.107 1.593-.007 1.54.114-1.384 3.115-3.632 3.729-4.657 5.587-5.8 10.512-.749 3.228-1.03 3.67-2.148 3.372-.708-.188-5.2-.836-9.985-1.442l-8.698-1.1-6.598 1.73c-7.978 2.09-10.949 4.237-15.335 11.084l-2.962 4.622zM80.602 557.75c-4.813-4.156-7.237-7.274-5.26-6.183 4.892 2.63 8.348 4.483 14.09 7.346 1.231.477 2.558 1.108 2.947 1.402 2.25 1.699 12.672.872 19.961-1.584l7.23-2.435c1.835 1.99 3.169 4.555 4.741 6.47 2.644 3.165 2.71 3.607.76 5.14-.813.64-3.33 3.921-5.594 7.292-2.263 3.37-4.262 6.12-4.44 6.111-13.289-6.007-25.913-16.183-34.435-23.559zm406.934-.599a83.625 83.625 0 016.055-2.102c6.331-1.909 22.273-24.237 19.05-26.682-1.733-1.316-7.944-3.432-11.203-3.818-4.72-.56-4.302-1.025 11.353-12.626 5.632-4.173 11.21-8.337 12.397-9.252 1.186-.916 3.098-2.385 4.247-3.265l8.25-6.316c8.63-6.609 20.955-19.165 24.638-25.101 5.858-7.351 11.8-15.577 17.059-22.343 5.861-7.465 7.623-11.45 14.616-33.066 1.614-4.987 3.489-10.027 4.167-11.2a370.02 370.02 0 002.815-4.99c2.54-4.592 5.428-9.182 4.613-.448-1.372 14.685-1.78 17.475-2.524 18.93-2.777 6.553-5.805 13.8-8.08 20.275-1.708 4.871-12.433 27.379-13.988 29.354-.288.366-2.327 4.121-4.53 8.345-5.163 9.897-13.137 23.3-16 26.89-13.422 16.835-40.217 42.78-54.4 52.676-4.1 2.745-8.889 6.396-12.092 8.634l-2.472 1.635-3.971-5.53zm-328.985 1.514c-4.173-1.555-6.806-2.299-8.14-2.299-1.143 0-1.48-.701-2.382-4.96-1.444-6.815-3.484-14.839-4.317-16.98-1.056-2.713-.55-2.659 6.272.674 3.48 1.7 8.992 4.372 12.248 5.939 4.386 2.109 5.825 3.096 5.55 3.807-.203.528-1.257 4.056-2.342 7.84-2.173 7.58-2.3 7.69-6.889 5.98zm176-2.09c-.88-.141-5.303-1.018-9.83-1.948l-8.231-1.692-1.854-2.924c-4.144-6.538-1.394-9.926 6.21-7.65 2.434.728 5.433 1.566 6.665 1.862 6.756 1.625 8.25 2.135 11.22 3.834 3.127 1.79 3.24 1.95 2.989 4.284-.408 3.798-2.433 4.994-7.169 4.234zm37.44-3.124c-1.408-.85-3.828-2.13-5.379-2.843-3.442-1.584-3.39-1.643 2.533-2.889 10.583-2.226 15.762-12.893 17.014-35.04l.43-7.603 3.48-2.835c4.558-3.713 7.057-3.827 10.652-.487l2.49 2.313-.403 5.66c-1.367 19.267-7.407 32.16-19.31 41.218-6.195 4.716-7.41 4.98-11.507 2.506zm-107.52-.423c-1.056-.372-2.032-.774-2.17-.893-.137-.118.942-1.443 2.399-2.944 1.84-1.895 3.067-4 4.02-6.896 1.94-5.892 5.204-10.635 7.938-11.537 3.45-1.14 5.063-.646 5.266 1.608.095 1.056.463 3.16.818 4.676.792 3.38.096 4.555-6.991 11.804-5.22 5.339-6.575 5.841-11.28 4.182zm194.24-.744c0-1.956-1.426-5.358-3.18-7.589l-1.378-1.75 3.72-1.653c2.045-.909 6.166-2.651 9.158-3.872 2.992-1.22 6.016-2.488 6.72-2.818 2.677-1.253 10.128-3.841 10.368-3.602.138.138-.558 1.654-1.545 3.369-2.1 3.644-2.798 5.06-4.878 9.889l-1.538 3.571-5.672.793c-4.905.687-6.035 1.09-8.351 2.99-3.182 2.606-3.424 2.654-3.424.672zm-250.88-5.966c-.528-.19-2.047-1.386-3.376-2.655-2.746-2.624-2.33-3.17 2.48-3.252 4.15-.07 15.061-9.42 22.878-19.605 3.546-4.619 3.608-5.179.868-7.834-2.826-2.74-5.067-2.664-12.636.423-5.795 2.364-12.323 3.931-16.376 3.931-1.825 0-3.568-1.437-7.521-6.2-1.605-1.933-.59-4.807 2.981-8.447l2.74-2.79 7.02-.144c3.863-.078 10.704-.375 15.203-.66l8.181-.516 4.3 2.092 7.65 3.719c5.423 2.633 5.545 2.894 4.41 9.468-1.865 10.811-12.994 24.728-23.442 29.313-.528.232-2.229 1.138-3.78 2.014-2.753 1.553-8.795 2.15-11.58 1.143zm-143.44-5.467c-24.7-29.89-46.82-76.753-54.959-117.92-.344-2.713-2.391-17.51-2.728-19.675 4.676-2.667 9.513-6.176 14.615-6.497.757 5.011.732 5.041 1.2 6.967 2.782 11.478 3.583 12.785 11.191 12.78 4.675-.003 5.04-.119 10.601-3.352l5.76-3.35.455 2.082c.25 1.144.893 5.104 1.428 8.8 1.055 7.287 1.728 10.802 4.775 24.96 2.716 12.622 7.054 23.65 15.349 39.02.842 1.56 7.104 4.427 12.873 5.894 5.336 1.357 10.848 5.38 10.874 7.937.026 2.634 12.01 12.885 20.166 17.252a462.235 462.235 0 017.197 3.933l2.717 1.534c-1.597 3.275-3.457 6.538-4.435 10.046-.693 2.574-2.025 3.51-2.924 2.055-.921-1.49-6.728-3.64-14.48-5.363-1.656-.368-1.69-.484-1.952-6.621-.282-6.59-.453-7.074-4.497-12.725-2.914-4.071-6.038-6.267-15.909-11.182-4.904-2.442-5.503-2.329-6.004 1.131-.246 1.7-1.12 5.437-1.944 8.306l-1.495 5.217 1.195 4.553c1.137 4.332 4.165 10.727 6.109 12.904 1.395 1.561 1.13 2.054-2.138 3.985-1.672.987-4.912 2.926-7.2 4.307-3.978 2.402-3.046 1.388-5.84 3.022zm226.861-3.575c2.147-2.372 1.462-9.75-1.065-11.47-2.644-1.8-16.22-2.04-25.965-.46-6.945 1.126-6.353 1.334-6.866-2.406-2.043-14.902 37.877-14.6 42.834.324.559 1.681.786 2.915.504 2.741-.28-.173-.373 1.12-.204 2.875.595 6.196-2.35 9.566-8.358 9.566-1.838 0-1.884-.06-.88-1.17zm39.46-2.093c-9.72-1.53-15.031-6.817-11.802-11.746 1.312-2.002 1.362-2.002 7.302-.033a265.38 265.38 0 009.427 2.897c12.51 3.53 8.38 10.976-4.928 8.882zm89.223-3.74c-3.142-.751-3.513-1.149-2.712-2.906.62-1.362.4-1.907-1.879-4.628l-2.582-3.085 3.287-5.566 5.491.415c8.955.678 22.743-1.672 36.382-6.2 5.322-1.767 6.518-1.988 6.294-1.164-.153.56-.473 2.457-.713 4.217-1.042 7.645-13.596 15.484-28.152 17.578-2.464.355-6.208.935-8.32 1.29-4.26.715-4.306.716-7.096.049zm-56.264-5.241c-4.38-2.184-7.22-15.4-4.147-19.307.697-.886 1.267-1.925 1.267-2.31 0-1.162 5.275-.795 7.428.518 3.1 1.89 4.913 18.383 2.282 20.764-1.285 1.163-4.82 1.336-6.83.335zm-31.68-12.76c-12.795-.717-14.972-1.988-14.632-8.546.198-3.826 1.121-4.626 4.253-3.689 1.309.392 4.971.99 8.14 1.33 5.475.59 11.526 2.398 13.883 4.15.962.717.993 1.16.28 3.963-.933 3.672-.02 3.459-11.924 2.792zm-39.04-20.195c-37.839-1.322-54.17-2.156-67.84-3.463-17.18-1.644-32.261-3.28-38.4-4.165-11.955-1.725-19.456-2.893-22.4-3.486-1.584-.32-5.616-1.048-8.96-1.62-15.839-2.706-30.644-8.071-32.073-11.622-.4-.993-.963-2.38-1.253-3.085-.29-.704-1.437-3.584-2.551-6.4-2.852-7.21-5.617-9.267-12.466-9.276-2.317-.003-13.737-11.913-13.737-14.327 0-.203-.992-2.49-2.206-5.08-4.976-10.63-5.911-13.795-7.313-24.757-1.792-14.004-1.698-14.382 4.124-16.618 6.763-2.598 12.582-5.462 18.288-9 2.82-1.75 5.266-3.182 5.433-3.182.168 0 1.945-1.104 3.95-2.454 9.49-6.39 17.981-9.758 21.41-8.49 1.762.652 2.11 3.896.556 5.184-.637.528-2.118 2.4-3.291 4.16-1.174 1.76-3.261 4.881-4.64 6.936-6.831 10.183-12.214 23.557-13.307 33.064a266.66 266.66 0 01-1.205 8.96c-1.094 6.97-.853 9.57 1.218 13.12 1.027 1.76 2.349 4.282 2.937 5.605 2.768 6.224 13.826 13.177 23.59 14.832 1.73.293 8.336-2.043 15.006-5.305 2.663-1.303 7.657-6.898 9.378-10.507 2.948-6.183 7.779-6.43 13.23-.677 2.223 2.347 5.738 6.019 7.81 8.158l3.768 3.89 7.432.238c13.797.442 23.306-2.076 29.96-7.931l2.936-2.584 1.028-8.277 1.028-8.276 2.059-.418c2.597-.526 2.736-.365 2.765 3.199.1 12.193 3.754 24.373 7.311 24.373.227 0 1.473.72 2.768 1.6 6.133 4.168 17.096.665 20.692-6.611 1.486-3.007 1.462-5.894-.147-17.973-2.154-16.17 1.036-44.654 6.404-57.176l1.303-3.04h4.407c6.481 0 13.406 3.221 15.612 7.263 2.507 4.59.54 24.118-3.941 39.137-5.394 18.076-5.076 27.185 1.073 30.755 1.68.976 3.198 1.965 3.374 2.198 4.75 6.28 17.338 2.327 21.79-6.843 4.385-9.033 8.29-33.009 8.29-50.901v-4.269c6.284-3.063 12.505-3.624 19.253-3.73 3.465 8.425 3.228 14.04 1.57 20.439-.873 3.164-3.964 14.106-6.472 22.911-.25.88-.736 1.96-1.08 2.398-.93 1.189.087 14.195 1.268 16.21 3.093 5.28 13.001 7.134 20.713 3.876 4.349-1.838 4.867-2.612 5.72-8.54 3.759-26.097 5.946-35.065 9.09-37.267 3.654-2.56 4.229-.962 4.737 13.18.353 9.813.72 12.941 2.237 19.033 2.357 9.467 2.044 9.014 10.685 15.43l3.4 2.524 5.214-.37c8.804-.627 15.533-4.721 18.933-11.52 2.665-5.33 5.685-16.667 5.943-22.314.615-13.425 3.743-18.008 10.043-14.714l3.07 1.605-.758 5.915c-.418 3.253-1.506 10.836-2.419 16.852-1.183 7.794-1.498 11.566-1.097 13.12.309 1.2.514 2.895.456 3.767-.082 1.224.404 1.836 2.134 2.687l6.738 3.319c17.216 8.485 26.542.76 26.542-21.986 0-6.434.305-10.41.982-12.825.54-1.925 1.232-6.684 1.537-10.576.82-10.45 1.549-12.444 4.544-12.444 1.31 0 2.68.361 3.046.802.55.662 2.127 11.105 2.2 14.558.337 16.068 13.5 41.787 23.882 46.667 2.296 1.08 2.866 1.639 2.532 2.483-.237.6-.58 1.977-.763 3.06-.759 4.51-34.846 15.343-66.44 21.117-13.572 2.48-21.594 3.495-55.04 6.963-5.28.547-12.624 1.322-16.32 1.722-6.164.667-67.68 1.264-81.28.79zm237.633-65.466c-3.931-8.682-6.128-17.986-11.403-44.312-1.64-8.18-14.016-7.985-32.209.506-6.533 3.05-7.824 3.297-9.335 1.786-.553-.554-1.006-.806-1.006-.562s-.374.134-.83-.246c-1.297-1.076.06-11.001 4.038-29.547 1.095-5.104 2.811-13.312 3.813-18.24 1.002-4.928 2.127-10.256 2.5-11.84.372-1.584 1.549-7.488 2.613-13.12 1.065-5.632 2.513-12.688 3.22-15.68.705-2.992 1.447-6.448 1.649-7.68.202-1.232 1.184-5.84 2.183-10.24 3.989-17.574 1.351-31.578-7.142-37.92-3.12-2.329-3.405-3.554-2.094-9.006 1.406-5.845 1.476-5.92 6.925-7.543 10.344-3.08 19.72-8.907 29.106-18.092 8.64-8.456 15.23-17.181 29.9-39.592 1.491-2.278 6.378-6.121 6.997-5.502.456.456-7.3 19.589-11.374 28.055-2.49 5.176-2.054 12.723.914 15.81 1.536 1.598 2.733 3.746 3.493 6.27 1.748 5.804 2.332 6.445 6.924 7.598l4.061 1.02 8.552-2.822c15.866-5.235 21.976-7.6 25.832-10.003 2.112-1.315 5.856-3.642 8.32-5.17 2.464-1.527 6.291-4.589 8.505-6.803 4.058-4.06 5.255-4.472 5.255-1.813 0 .798.84 5.893 1.867 11.322 4.276 22.614 4.761 67.315 1.034 95.311-1.098 12.978-3.49 26.86-5.865 37.046-2.061 8.774-3.638 17.378-5.451 29.742l-1.488 10.147-3.018 2.527c-4.442 3.719-6.598 3.177-10.644-2.672-5.603-8.103-13.09-10.204-19.955-5.602-8.905 5.97-9.686 7.358-10.3 18.29-.5 8.88-2.262 16.23-5.631 23.482a198.68 198.68 0 00-2.652 6.08c-3.881 9.343-10.898 18.822-17.37 23.465l-2.823 2.025c-3.031-5.943-4.854-10.64-7.11-16.475zm-366.273-1.72l-4.16-2.933-4.4.391c-13.053 1.16-15.746-10.14-5.957-24.99 4.156-6.305 8.329-6.998 19.249-3.195l6.225 2.168.121 15.753.122 15.752-3.52-.007c-3.143-.006-3.964-.321-7.68-2.94zm51.507-10.315l-2.524-3.02.064-8.34c.078-10.14 1.18-16.846 5.793-35.22 5.384-21.45 3.933-26.15-9.48-30.708-7.063-2.4-10.664-1.72-16.88 3.191-5.102 4.032-6.911 4.797-11.333 4.797-2.279 0-5.557.426-7.285.946-1.728.52-3.286.94-3.462.934-3.396-.116-10.972 3.359-17.092 7.84-1.833 1.342-3.57 2.44-3.858 2.44-.289 0-1.032.592-1.652 1.316-1.019 1.19-3.048 1.274-4.254.176-.162-.149 1.247-3.194 3.132-6.767l3.428-6.497-.432-7.394c-.921-15.797-2.8-19.332-10.492-19.745-4.926-.264-6.89.74-15.033 7.689-2.806 2.393-6.868 4.915-11.52 7.15-9.25 5.5-29.715 12.977-29.715 12.977s-.292-.766.1-5.443c2.068-24.661 2.462-27.507 4.806-34.665 6.44-19.661 9.524-22.129 28.822-23.058 33.152-1.596 28.77-.67 38.625-8.154 6.187-4.698 10.33-13.166 13.157-26.896 2.14-10.396-4.807-22.58-13.702-24.027-5.027-1.026-10.359-1.62-15.122-1.664-9.222-.057-13.023-2.187-13.458-7.542-.214-2.634-.146-2.74 2.66-4.16 4.257-2.152 4.716-3.588 3.575-11.182-.519-3.45-1.11-9.586-1.312-13.634l-.369-7.36 2.617 5.12c6.17 12.075 8.164 14.775 13.941 18.885l5.392 3.835h4.996c18.765 0 26.466-8.564 23.595-26.24-.874-5.381-.385-7.747 2.105-10.181 2.587-2.53 2.688-2.519 7.857.876 4.676 3.072 8.097 3.961 12.643 3.288 1.496-.222 6.995-.81 12.219-1.306 10.309-.98 12.829-1.97 15.861-6.229 3.285-4.613 3.174-2-.621 14.669-3.626 15.925-3.459 17.128 3.003 21.573 5.87 4.038 12.816 3.45 26.004-2.204 2.96-1.269 9.278-2.45 22.338-4.175 10.146-1.34 9.866-1.38 10.342 1.45 1.478 8.779 4.952 14.897 9.043 15.924 2.837.712 8.531-1.916 8.531-3.938 0-1.265 2.53-4.098 4.629-5.184 3.678-1.902 8.014-.791 14.747 3.778 4.068 2.76 12.822 5.168 17.148 4.716 7.875-.823 10.62-3.653 16.354-16.858l3.11-7.16 11.31 11.32c16.315 16.329 22.93 19.7 30.337 15.461 4.095-2.342 5.595-5.087 6.724-12.3.922-5.89 1.261-6.035 3.48-1.502 2.725 5.573 8.758 10.867 14.156 12.423 10.954 3.158 17.435-4.637 26.81-32.251 8.364-24.632 8.8-24.983 12.19-9.819 1.796 8.03 6.215 10.085 17.885 8.318 2.112-.32 6.666-.766 10.12-.99 7.047-.46 7.735-.513 10.374-2.656 2.67-2.168 5.057-3.43 9.195-2.457.631 2.646-1.676 2.941-3.129 4.22-3.92 3.477-7.302 6.02-9.28 6.98-1.056.511-3.216 1.827-4.8 2.924-3.035 2.1-17.094 10.49-17.58 10.49-.155 0-3.56 2.016-7.567 4.48-4.006 2.464-7.62 4.48-8.028 4.48-2.597 0 4.494 8.103 9.655 11.033 2.84 1.613 2.773 1.122.893 6.497-2.587 7.4-4.254 9.031-10.145 9.933-7.512 1.15-9.145 1.913-12.285 5.74-6.095 7.43-6.98 10.936-8 31.646-.626 12.733-1.116 14.511-4.002 14.511-1.064 0-1.18-.596-1.18-6.056 0-15.425-8.567-22.012-24.96-19.194-6.275 1.079-16.987 10.324-18.883 16.298-.617 1.944-1.845 1.568-6.884-2.11-6.864-5.011-7.455-5.323-13.612-7.202-6.238-1.902-9.114-1.704-15.355 1.056-11.916 5.27-11.024 26.539 1.821 43.445 5.957 7.841 22.068 22.51 26.5 24.127 3.019 1.438 5.236 3.184 8.274 4.676.964 0 2.1 2.432 2.118 4.536l.02 2.295-5.263 1.202c-9.554 2.182-10.517 4.721-11.278 29.727-.377 12.376-.526 13.742-1.49 13.583-3.889 1.1-4.245-.386-7.32-2.457-1.113-.658-1.191-1.444-.99-9.92.295-12.424-.416-16.4-3.718-20.773-4.158-5.507-5.509-6.438-12.449-8.582-3.548-1.096-7.397-2.41-8.553-2.921-3.521-1.557-10.45-.962-15.819 1.359-2.362.812-4.646 2.189-6.4 3.504-2.464 1.859-4.983 3.53-7.552 5.225l-2.726-2.885c-4.455-4.716-11.013-7.56-18.995-8.24-6.037-.514-17.578.16-19.127 1.117-.308.19-.56-.688-.56-1.953 0-6.038-2.451-8.052-11.84-9.724-13.62-2.427-23.44.953-26.901 9.257-.984 2.36-2.018 4.594-2.298 4.966-1.195 1.58-1.784 10.978-2.051 32.723-.34 27.612-.108 26.626-7.15 30.385-6.98 3.727-11.284 3.562-14.733-.564zM1.751 394.178c0-.852-.168-1.986-.373-2.521-.412-1.074 3.843-2.576 6.256-2.21 1.15.175.972.553-1.535 3.238-3.161 3.388-4.348 3.795-4.348 1.493zm432.392.383a164.88 164.88 0 01-.133-22.516c.823-12.418-.966-19.11-5.653-21.143-3.235-1.404-14.387-2.654-15.687-2.155-.79.303-.039-1.12-.039-4.354v-3.932l7.342-7.294c6.908-6.864 11.262-12.491 14.235-18.402.708-1.408 2.5-5.049 3.981-8.091 3.29-6.756 4.87-8.396 7.812-8.115l2.15.206-.035 4.16c-.019 2.288-.517 11.216-1.108 19.84-1.17 17.111-1.464 24.27-2.134 52.035-.426 17.64-.502 18.474-1.766 19.36-1.415.991-8.407 1.304-8.965.401zM2.655 379.443c-2.117-1.548-2.718-12.323-1.608-28.866.353-5.264.801-15.476.996-22.692.739-27.325 1.744-50.995 2.296-54.08.315-1.76 1.165-6.069 1.888-9.576.723-3.507 2.17-13.587 3.217-22.4 1.844-5.617 4.317-39.444 5.542-47.96 5.857-.254 13.002 1.356 16.751 3.929 4.909 3.368 6.356 3.658 10.47 2.094 6.582-2.501 7.255-2.218 12.875 5.427 10.66 14.5 20.719 11.77 37.511-10.184l4.674-6.11c-.217-3.8-.913-7.507-2.03-11.144 0 0 7.39-.798 11.487-.964-4.27 10.092-3.591 32.21-1.696 34.803 4.312 1.903 7.543 1.833 12.563 2.451v5.38l-7.502.462c-17.01 1.048-31.972 6.471-46.01 16.678-8.39 6.098-18.516 25.106-20.08 37.687-.779 6.272-1.074 81.634-.342 87.44l.445 3.535-3.415 1.187c-1.879.653-5.576 2.43-8.216 3.947-6.463 3.715-10.05 5.184-17.267 7.075-9.269 2.428-11.37 2.743-12.549 1.881zM320.082 193.76c-1.01-1.408-2.295-3.08-3.55-4.189-1.66-1.44-1.085-4.413.108-21.045 2.09-29.128.827-31.87-14.317-31.06-13.283.71-14.188 2.304-12.926 22.747.438 7.09.373 8.777-.356 9.366-1.549 1.25-7.53 4.181-9.69 4.749-5.627 1.826-11.914 2.81-17.172 3.27.696-3.322 1.837-6.647 2.775-9.392 1.91-5.57 3.497-9.128 11.99-26.88 5.022-10.494 5.27-11.97 2.573-15.357-3.632-4.563-8.772-6.585-21.214-8.346-5.1-.722-6.609 1.03-10.768 12.503-2.158 6.697-5.368 13.738-7.404 20.16-2.206 6.99-2.134 6.897-5.012 6.437-6.417-1.28-9.871-2.76-14.783-11.585-2.54-3.587-5.656-4.997-10.024-4.537-1.892.2-7.473.791-12.4 1.315-4.929.524-12.705.951-17.28.949-4.577-.002-9.109.01-10.072.029-4.605.086-4.312 4.959.54 8.992 2.67 2.064 4.913 4.575 7.352 6.881 2.708 2.424-1.03 6.041-6.97 6.745-4.923.583-7.28 1.619-8.521 5.477-2.213 6.157-6.489 4.645-13.69 5.177l-2.88-4.164c-4.3-6.219-4.027-6.036-9.005-6.036h-4.435v-9.817c0-9.542.04-9.837 1.44-10.533.792-.393 3.456-1.882 5.92-3.308s6.548-3.611 9.075-4.856c9.849-4.85 13.574-12.024 11.805-22.733-1.55-9.389-5.372-12.71-11.179-9.715-6.767 3.925-14.44 6.342-21.46 9.595.032-5.356 2.04-11.762 3.14-15.907.986-3.685.764-13.504-.367-16.21-1.472-3.524-4.422-4.507-9.894-3.299-3.743 1.45-7.618 2.196-12.003 3.032-5.501 2.003-6.438-.302-9.867-5.394-.862-.843-1.17-2.108-1.173-4.8-.005-5.253-1.255-6.952-6.722-9.139-2.461-.984-4.558-2.188-4.659-2.675 18.535-24.776 46.308-45.685 73.727-55.925 8.105-2.888 29.601-4.778 36.63-3.221 36.74 5.608 55.218 21.127 78.649 47.44 13.736 16.188 30.1 40.136 40.898 64.166 2.082 4.388 2.794 6.811 3.803 9.74 4.748 13.846 4.594 13.783 22.631 9.255 20.518-5.151 20.798-4.1 7.252 27.264-4.425 10.247-5.357 12.2-8.4 17.6-2.846 6.065-7.382 11.764-10.846 15.747 0 .533-6.138 2.44-9.035 2.807-1.512.191-1.914-.046-2.234-1.32zm-278.65-4.145c-.88-.294-3.76-1.155-6.4-1.914-12.901-3.708-14.72-4.609-14.72-7.29 2.423-17.944 8.615-30.223 14.72-45.485 3.708-9.3 8.409-18.513 12.506-24.512 9.994-14.56 20.542-29.555 32.825-40.926 3.586 1.677 8.223 6.154 11.052 10.438 4.458 6.751 5.772 9.024 6.077 10.507 2.148 8.16 2.93 17.558 3.24 25.01l.408 9.957c-10.88 4.996-23.26 6.194-34.269 2.103-12.725-5.016-11.557 16.85 1.53 28.623 5.308 4.775 18.76 5.032 33.368.635 3.432-1.033 3.352-1.091 3.924 2.858.322 2.223.115 3.656-.856 5.92-1.478 3.45-1.3 3.417-12.526 2.272-12-1.224-10.998-1.428-13.872 2.822-3.74 5.53-11.139 12.324-16.967 15.584-6.271 3.507-15.19 5.02-20.04 3.398zm376.29-1.6c-3.002-3.096-5.27-4.118-10.53-4.741-5.552-.659-7.583-1.438-10.564-4.055-6.647-4.312-11.7-10.066-19.121-12.588-1.716-.566-2.636-1.25-2.636-1.96 0-5.123 5.48-18.552 7.563-18.537.593.004 2.373.765 3.957 1.691 2.369 1.385 4.073 1.774 9.594 2.192l6.714.508 2.246 2.558c5.363 6.108 9.739 7.43 17.481 5.283 6.425-1.781 6.359-1.688 12.315-17.36 6.524-17.166 12.462-20.564 19.126-10.944l1.876 2.708-1.984 6.198c-7.902 24.69-18.792 42.81-29.787 49.558-3.61 2.216-3.607 2.217-6.25-.51zm178.27-2.88c-3.042-.288-4.863-.742-8.95-1.889-5.628 0-5.972-5.363-1.09-16.96 2.284-4.993 3.91-10.231 5.826-15.36 4.378-10.72 4.823-23.988.947-28.17-2.742-2.96-15.979-1.865-19.452 1.608-3.816 7.868-6.063 16.88-8.81 24.642-2.944.616-4.76.161-5.921.242-1.879-5.233-2.791-12.113-4.842-16.544-2.73-4.223-3.73-5.26-7.153-7.158-3.406-1.73-14.892-.063-17.567 2.8-2.052 2.198-2.128 2.856-.822 7.162 1.574 5.189.368 16.448-2.871 26.796l-1.358 4.338c-3.144-1.776-5.503-4.865-7.33-7.282-2.597-3.458-4.496-5.357-5.76-5.759-2.362-.75-11.138-1.543-10.786-.975.41.662-10.827 1.286-19.115 1.063l-7.534-.203c4.508-10.853 13.954-23.146 14.188-33.6-.49-5.639-1.098-6.681-3.464-8.623-7.884-4.802-16.976-8.72-25.628-11.274-11.773-3.379-17.85-3.895-22.71-1.93-1.65.667-3.906 1.554-5.015 1.971-3.172 1.194-4.308 2.84-10.635 15.413-9.897 19.664-15.325 25.563-23.524 25.563-4.536-.724-8.522-4.14-12.12-6.272-1.284-.48 1.46-11.415 4.119-18.048 2.757-6.879 2.358-14.035-1.019-18.299-1.374-1.85-1.55-1.642-3.58-2.691-3.986-2.086-8.457-1.72-14.627 1.2-9.124 3.483-19.33 6.772-27.798 9.303-4.142 1.302-8.211 2.242-12.289 3.723-1.697.744-4.35-2.427-4.35-5.2 0-3.628 14.901-19.26 31.04-32.562 2.111-1.74 4.752-3.981 5.867-4.979 2.142-1.915 13.046-10.265 24.04-18.408 6.91-5.118 14.634-10.21 21.612-14.248 2.288-1.324 7.184-4.254 10.88-6.512 24.816-15.16 60.881-18.934 100.68-10.534 12.325 2.602 22.465 6.716 30.52 12.384 20.456 11.271 35.824 32.105 43.724 50.983 6.454 14.096 9.507 24.792 13.831 41.6 4.891 15.335 10.135 42.045 9.978 50.824-.167 9.313-8.127 13.782-21.133 11.865z" fill="#f0908d"/></svg>