<?xml version="1.0" encoding="UTF-8" standalone="no"?>
<svg
   xmlns:dc="http://purl.org/dc/elements/1.1/"
   xmlns:cc="http://creativecommons.org/ns#"
   xmlns:rdf="http://www.w3.org/1999/02/22-rdf-syntax-ns#"
   xmlns:svg="http://www.w3.org/2000/svg"
   xmlns="http://www.w3.org/2000/svg"
   xmlns:sodipodi="http://sodipodi.sourceforge.net/DTD/sodipodi-0.dtd"
   xmlns:inkscape="http://www.inkscape.org/namespaces/inkscape"
   width="287.28647"
   height="271.64127"
   version="1.1"
   id="svg6"
   sodipodi:docname="favicon.svg"
   inkscape:version="1.0.1 (3bc2e813f5, 2020-09-07)"
   inkscape:export-filename="C:\Users\noirc\Desktop\aki-farm\images\favicon.png"
   inkscape:export-xdpi="96"
   inkscape:export-ydpi="96">
  <metadata
     id="metadata12">
    <rdf:RDF>
      <cc:Work
         rdf:about="">
        <dc:format>image/svg+xml</dc:format>
        <dc:type
           rdf:resource="http://purl.org/dc/dcmitype/StillImage" />
        <dc:title />
      </cc:Work>
    </rdf:RDF>
  </metadata>
  <defs
     id="defs10" />
  <sodipodi:namedview
     pagecolor="#ffffff"
     bordercolor="#666666"
     borderopacity="1"
     objecttolerance="10"
     gridtolerance="10"
     guidetolerance="10"
     inkscape:pageopacity="0"
     inkscape:pageshadow="2"
     inkscape:window-width="1368"
     inkscape:window-height="850"
     id="namedview8"
     showgrid="false"
     inkscape:zoom="1.1820331"
     inkscape:cx="154.07306"
     inkscape:cy="128.26881"
     inkscape:window-x="-6"
     inkscape:window-y="-6"
     inkscape:window-maximized="1"
     inkscape:current-layer="svg6"
     fit-margin-top="0"
     fit-margin-left="0"
     fit-margin-right="0"
     fit-margin-bottom="0"
     inkscape:document-rotation="0" />
  <path
     d="m 127.73607,32.831812 c -0.18922,0.005 -0.37716,0.033 -0.56,0.082 -4.39,1.26 -10.648,5.39 -15.168,10.014 -5.718,5.848 -15.110004,13.603 -25.776004,21.281 -14.607,10.517 -15.212,10.94 -15.701,10.94 -0.217,0 -2.48,1.369 -5.027,3.04 -6.053,3.974 -6.567,4.295 -10.15,6.323 -4.454,2.52 -4.075,2.96 3.523,4.068 9.456,1.38 14.98,0.64 23.025,-3.08 6.37,-2.945 8.182,-3.619 12.252,-4.564 1.717,-0.4 5.172,-1.824 7.680004,-3.166 2.507,-1.343 6.144,-2.956 8.08,-3.586 7.333,-2.386 10.018,-4.404 23.26,-17.473 9.957,-9.827 9.779,-9.388 6.039,-14.945 -0.63,-0.937 -1.072,-2.376 -0.983,-3.2 0.203,-1.863 -7.38,-5.862 -10.494,-5.734 z m 28.451,56.63 c -0.223,0.222 0.104,2.06 0.727,4.085 1.706,5.544 1.853,8.395998 0.736,14.355998 -1.802,9.618 -0.62,19.097 2.914,23.355 1.309,1.577 6.398,1.04 9.64,-1.016 6.159,-3.905 10.216,-14.806 7.452,-20.023 -3.062,-5.701 -13.175,-19.588998 -21.469,-20.757998 z m -39.445,0.222 c -0.30608,-0.0108 -0.61253,-0.005 -0.918,0.017 -1.672,0.12 -3.552,0.716 -5.592,1.819 -2.919,1.578 -7.981,11.473998 -7.996,15.628998 -0.003,0.717 -2.473004,1.503 -9.764004,3.103 -13.447,2.952 -15.191,3.197 -23.064,3.25 -7.412,0.05 -11.18,1.207 -12.604,3.867 -1.836,4.4 3.333,11.934 6.344,15.7 8.162,-0.154 17.792,-2.593 26.606,-6.069 3.084,-0.853 6.522,-2.58 10.06,-3.271 -11.326,18.65 -29.472,44.88 -43.107,55.74 15.078,0 30.09,-9.494 44.713004,-22.58 3.136,-3.036 3.527,-2.962 2.697,0.517 -0.333,1.399 -1.182,6.719 -1.885,11.823 -2.134,15.508 -4.264004,22.628 -7.970004,26.642 -1.259,1.363 -3.431,4.36 -4.829,6.66 l -2.54,4.182 c 3.171,7.975 5.988,12.02 15.980004,15.383 7.8,1.445 8.788,1.265 13.578,-2.473 7.456,-5.817 8.17,-9.358 8.178,-40.556 -0.03,-5.422 0.441,-19.564 0.004,-26.479 0,-1.875 0.062,-1.808 4.379,4.64 5.478,8.186 5.107,7.798 10.328,10.757 l 4.69,2.658 3.901,-0.797 c 8.833,-1.802 10.965,-5.647 6.59,-11.887 -1.126,-1.607 -2.335,-3.413 -2.687,-4.012 -1.693,-2.878 -3.54,-4.487 -7.362,-6.42 -13.678,-6.917 -18.558,-12.656 -18.558,-21.82 v -6.863 l 5.28,-1.016 c 2.903,-0.559 8.159,-1.347 11.679,-1.75 7.844,-0.898 7.2,-0.394 6.666,-5.21 -1.107,-9.978 -3.278,-10.794 -21.965,-8.258 l -3.58,0.484 v -2.488 c 0,-6.889998 -2.772,-10.761998 -7.252,-10.921998 z m 120.619,13.087998 c -1.214,0.061 -2.401,0.638 -4.057,1.756 -6.018,4.062 -6.271,4.49 -6.271,10.578 0,5.704 -0.849,8.83 -3.596,13.248 -0.794,1.278 -1.923,4.014 -2.51,6.08 -1.42,4.29 -4.771,9.323 -6.525,15.174 2.489,0.015 7.87,-0.896 12.31,-1.854 6.639,-2.402 15.824,-5.737 19.82,-13.404 6.81,-10.848 4.458,-25.194 -4.954,-30.24 -1.763,-0.945 -3.003,-1.4 -4.217,-1.338 z m -46.004,103.207 c -0.628,0.01 -1.463,0.978 -2.799,2.77 -6.606,8.858 -12.724,21.789 -12.724,26.886 0,5.571 6.676,23.372 10.107,26.95 22.86525,21.67583 52.30775,0.23653 59.652,-20.321 -10.357,-0.111 -19.755,3.297 -30.966,1.84 -15.063,-7.756 -15.46,-12.943 -21.254,-33.116 -0.663,-3.066 -1.102,-4.65 -1.758,-4.955 -0.0807,-0.0375 -0.169,-0.056 -0.258,-0.054 z"
     fill="#a61017"
     id="path2"
     style="display:inline"
     sodipodi:nodetypes="ccccscccccccscccccccccccccccccccccccccccccccccscccccsccscccscccscccccccccsccccsc" />
  <path
     d="M 132.94107,0.02581174 C 93.407066,0.79581174 53.453066,20.285812 31.224066,50.847812 2.0040661,91.020812 -8.7829339,154.85381 7.8140661,189.37881 c 11.2629999,22.738 20.6699999,37.657 54.3339999,55.967 16.587,7.76 17.205,7.97 29.35,9.933 30.318004,4.904 46.614004,-2.862 69.360004,-33.05 4.616,-6.137 10.766,-15.026 15.43,-23.88 8.16,-13.856 14.02,-28.47 20.073,-42.88 8.414,-21.322 14.307,-39.331 22.488,-61.284998 0.806,-1.57 2.427,-4.668 3.604,-6.885 6.795,-12.798 -0.815,-24.582 -16.408,-25.404 l -6.97,-0.367 c -1.24,1.625 -2.48,3.251 -3.722,4.876 l -0.365,12.852 c -0.37,13.057 -1.06,17.858 -4.52,31.411998 -6.258,24.06 -15.037,47.923 -26.115,70.08 -9.053,18.324 -14.145,27.085 -20.275,34.881 -14.024,17.44 -31.079,24.61 -55.285004,21.082 -23.064,-5.429 -36.801,-14.54 -48.75,-32.33 -6.423,-9.71 -11.745,-20.466 -15.696,-31.545 -8.32,-20.105 0.177,-66.721 17.547,-96.265998 13.886,-19.003 24.007,-36.66 65.320004,-49.962 23.367,-7.086 41.8,-8.936 60.337,-3.297 28.271,8.6 47.131,18.691 63.322,33.88 7.033,6.692 11.362,13.311 16.904,23.717 5.818,8.966 10.613,17.946 14.197,29.120998 1.316,4.629 2.897,21.74 2.52,27.27 -2.366,45.088 -5.537,45.58 -19.361,71.559 -4.35,6.671 -9.043,14.212 -14.38,21.171 10.7,0.199 18.093,-0.438 29.24,-5.716 7.552,-3.951 8.533,-5.077 15.925,-18.284 8.892,-15.887 13.865,-55.61 10.097,-80.64 -8.815,-54.824998 -18.534,-68.009998 -52.734,-97.796998 -21.895,-13.77 -43.007,-22.6910003 -83.475,-26.72700026 a 120.628,120.628 0 0 0 -16.865,-0.84 z"
     fill="#00552e"
     id="path4"
     style="display:inline" />
</svg>
