<svg xmlns="http://www.w3.org/2000/svg" width="561.92" height="541.44"><path d="M268.338 10.45c-1.53.008-3.245.299-5.45 1.07-5.988 2.316-13.29 15.467-17.181 21.646-25.69-13.237-39.696-2.502-30.777 37.272 3.007 18.35 15.694 46.423 32.957 54.72 4.42 1.382 4.475 1.311 2.906-3.756-5.207-17.22-8.822-36.227-9.328-54.986 7.6 13.737 10.517 28.227 21.203 41.02 4.231-14.7 2.326-30.246 4.547-44.995 5.467 12.141 7.718 27.218 9.137 42.76 7.906-6.137 17.724-24.632 22.101-34.48 2.516 17.939-5.7 33.639-10.02 52.152 9.65 4.837 20.773-13.027 26.083-19.193 6.264-9.78 10.496-21.399 13.15-33.131 1.843-12.636-.73-37.503-10.242-45.012-2.031-2.178-17.185-1.103-20.463 1.393-1.164.885-1.936.289-5.461-3.31-5.292-5.406-13.009-11.2-15.674-11.77-2.328-.514-4.092-1.112-6.01-1.323-.479-.052-.968-.08-1.478-.078zm109.746 29.183c-9.409-.006-30.133 17.99-33.305 29.297-4.234 15.09-6.328 21.371-11.144 33.431l-5.48 13.723.392 5.158c1.082 14.22.96 13.723 3.576 14.428 7.544 2.031 8.482 1.313 9.596-7.35 1.452-11.3 2.138-14.796 4.017-20.48 2.795-8.403 7.583-16.361 14.764-23.488 2.329-1.659 2.582-2.849-2.402 11.328-3.623 10.44-6.288 24.857-6.914 38.4 14.072-14.487 25.232-42.44 44.257-57.28 1.718-2.088 1.683-1.265-.263 6.231-3.9 13.238-18.202 33.09-28.645 48.465-4.556 7.392-4.656 7.042 1.78 6.147 11.04-1.536 25.153-10.89 34.105-22.602 3.18-4.16 3.74-2.98 1.539 3.238-3.303 9.333-11.79 18.562-19.217 20.895-2.849.895-19.709 9.216-20.428 10.082-2.81 4.646 13.446 11.573 20.967 7.765 19.632-10.007 36.86-38.442 51.725-58.023 2.597-14.097-1.867-21.354-13.912-22.613-3.986-.417-5.368-2.347-4.235-5.916.496-1.563-1.733-8.53-3.412-10.664-3.467-4.409-12.764-6.47-20.943-4.64-1.98.442-4.102-2.063-4.102-4.847 0-4.12-6.23-9.908-11.441-10.627a6.438 6.438 0 00-.875-.058zm-216.256 7.83c-3.605-.187-6.887 1.537-11.748 5.076-3.794 2.763-7.25 6.959-7.705 9.354-7.639-1.964-15.865-2.21-23.814-.125-11.404 7.23-12.745 9.612-12.055 21.398l.435 7.443c-6.754 2.786-12.87 5.68-15.4 13.551-1.808 7.711.947 16.536 7.969 24.8 1.97 2.113 4.584 5.027 5.808 6.48 9.344 11.082 32.375 23.584 47.002 25.515 9.443 1.246 16.554-.377 17.782-4.059.592-1.778-4.658-5.566-10.725-7.736-10.879-4.048-23.532-12.808-30.648-23.885-1.753-2.108-.407-1.63 10.152 3.602 16.59 8.22 28.158 13.514 28.158 12.889 0-.182-2.997-6.16-6.662-13.287-6.413-12.473-10.402-21.388-9.826-21.963.563-.564 16.212 14.993 21.129 21.004 2.807 3.432 5.396 6.24 5.752 6.24.426 0 .536-5.284.324-15.52-.34-16.414-.15-15.128-4.078-27.611 5.114 2.795 9.364 10.202 9.957 17.978.97 6.364.943 21.816 7.742 29.153 8.203-4.964 12.157-9.218 12.111-24.16-1.161-14.2-3.915-26.666-7.627-34.516-4.767-10.225-10.129-18.45-20.345-25.223-6.154-4.11-10.082-6.21-13.688-6.398zm294.102 70.553c-.525.01-1.055.05-1.588.12-2.841.374-5.777 1.601-8.621 3.77-14.862 7.838-24.297 18.095-33.233 30.512-4.98 7.937-10.322 21.418-5.316 35.262.954 2.53 1.149 2.357 4.504-4.004 10.514-19.934 17.175-26.246 33.365-31.62 1.288-.427.012 2.183-1.85 3.784-2.722 2.342-14.738 18.22-16.091 21.265a493.976 493.976 0 01-2.924 6.448c-1.645 3.53-1.254 3.828 2.164 1.642 6-3.837 13.489-7.029 25.5-10.867 8.974-2.868 9.207-2.783 4.78 1.7-7.635 7.205-26.054 13.98-30.513 21.943 11.073 5.67 35.845.14 49.04-3.21 2.937-.852-5.48 7.114-9.528 9.018-4.558 2.144-22.255 5.395-31.7 5.823-13.292.601-12.98.376-8.985 6.523 3.677 5.659 6.334 7.595 12.464 9.084 22.296 5.414 53.522-2.725 67.618-17.625 7.709-8.149 13.382-19.06 10.775-20.725-2.911-6.686-8.322-12.794-18.031-14.988l-3.68-.443-.039-6.514c-.085-14.12-5.802-20.734-18.06-20.89-2.161-.028-2.118.081-3.54-8.733-1.774-10.997-8.637-17.437-16.511-17.275zm-389.315 26.96a62.22 62.22 0 00-1.855.04c-3.25.117-6.227.492-8.6 1.16-6.406 1.802-7.017 3.438-4.406 11.799l1.266 4.052-2.35.91c-8.727 3.381-9.693 5-7.676 12.874 1.395 5.445 1.328 5.594-2.82 6.295-3.855.704-6.398 5.637-9.293 8.496-2.437 2.589.084 14.45 4.062 19.107 2.393 2.8 2.85 3.73 2.541 5.172-1.309 6.124-1.598 11.829-.683 13.488 4.866 8.37 18.463 13.185 28.799 15.834 9.262 2.591 39.486-1.594 46.58-6.451 1.217-.833 6.862-7.873 6.855-8.549-.021-2.147-10.354-4.262-25.277-5.174-17.692-1.08-23.858-3.153-31.488-10.584l-1.413-1.373 6.354.82c3.494.452 10.178 1.555 14.851 2.454 8.56 1.645 24.819 1.801 24.819.238-1.726-1.24-4.989-1.65-6.965-3.103-5.466-2.766-11.134-5.455-16.525-8.313-1.166-.01-18.112-9.839-18.112-10.504 0-1.997 18.29.166 25.62 3.03 16.937 6.617 18.647 6.826 14.013 1.706-1.752-1.936-5.605-7.12-8.56-11.52-2.956-4.4-6.683-9.57-8.282-11.49-3.863-4.636-3.565-4.65 4.754-.214 8.034 4.283 11.645 6.954 14.588 10.787 1.112 1.448 2.527 3.228 3.145 3.957.618.728 2.13 2.574 3.363 4.102 1.232 1.527 4.053 4.649 6.267 6.937l4.026 4.16 2.861-3.191c8.51-9.492 7.042-14.25-9.789-31.725-6.213-6.653-13.397-14.702-24.943-20.242-5.285-3.128-16.333-5.048-25.727-4.984zm188.008 30.307a2.435 2.435 0 00-.56.082c-4.39 1.26-10.648 5.39-15.168 10.014-5.718 5.848-15.11 13.603-25.776 21.281-14.607 10.517-15.212 10.94-15.701 10.94-.217 0-2.48 1.369-5.027 3.04-6.053 3.974-6.567 4.295-10.15 6.323-4.454 2.52-4.075 2.96 3.523 4.068 9.456 1.38 14.98.64 23.025-3.08 6.37-2.945 8.182-3.619 12.252-4.564 1.717-.4 5.172-1.824 7.68-3.166 2.507-1.343 6.144-2.956 8.08-3.586 7.333-2.386 10.018-4.404 23.26-17.473 9.957-9.827 9.779-9.388 6.039-14.945-.63-.937-1.072-2.376-.983-3.2.203-1.863-7.38-5.862-10.494-5.734zm28.451 56.63c-.223.222.104 2.06.727 4.085 1.706 5.544 1.853 8.396.736 14.356-1.802 9.618-.62 19.097 2.914 23.355 1.309 1.577 6.398 1.04 9.64-1.016 6.159-3.905 10.216-14.806 7.452-20.023-3.062-5.701-13.175-19.589-21.469-20.758zm-39.445.222a8.543 8.543 0 00-.918.017c-1.672.12-3.552.716-5.592 1.819-2.919 1.578-7.981 11.474-7.996 15.629-.003.717-2.473 1.503-9.764 3.103-13.447 2.952-15.191 3.197-23.064 3.25-7.412.05-11.18 1.207-12.604 3.867-1.836 4.4 3.333 11.934 6.344 15.7 8.162-.154 17.792-2.593 26.606-6.069 3.084-.853 6.522-2.58 10.06-3.271-11.326 18.65-29.472 44.88-43.107 55.74 15.078 0 30.09-9.494 44.713-22.58 3.136-3.036 3.527-2.962 2.697.517-.333 1.399-1.182 6.719-1.885 11.823-2.134 15.508-4.264 22.628-7.97 26.642-1.259 1.363-3.431 4.36-4.829 6.66l-2.54 4.182c3.171 7.975 5.988 12.02 15.98 15.383 7.8 1.445 8.788 1.265 13.578-2.473 7.456-5.817 8.17-9.358 8.178-40.556-.03-5.422.441-19.564.004-26.479 0-1.875.062-1.808 4.379 4.64 5.478 8.186 5.107 7.798 10.328 10.757l4.69 2.658 3.901-.797c8.833-1.802 10.965-5.647 6.59-11.887-1.126-1.607-2.335-3.413-2.687-4.012-1.693-2.878-3.54-4.487-7.362-6.42-13.678-6.917-18.558-12.656-18.558-21.82v-6.863l5.28-1.016c2.903-.559 8.159-1.347 11.679-1.75 7.844-.898 7.2-.394 6.666-5.21-1.107-9.978-3.278-10.794-21.965-8.258l-3.58.484v-2.488c0-6.89-2.772-10.762-7.252-10.922zm261.676 4.56c-4.416.014-9.234.25-14.569.692-15.171 1.275-48.734 12.852-57.771 32.736-.752 4.05 3.22 4.598 9.732 1.344 16.744-8.198 34.538-15.967 55.389-12.533 3.452.883 9.434 3.934 9.434 4.81 0 .572-7.008 1.215-13.374 1.227-9.41.016-24.367 5.601-39.07 14.588-1.706 1.08 19.459 5.597 26.434 4.935 4.866.521 4.835.85-.23 2.4-10.084 3.089-12.807 3.703-19.391 4.37-9.109.921-9.465 1.025-7.809 2.271 11.7 8.223 24.717 10.173 37.76 14.73l-3.84.874c-17.273 3.675-34.542-5.567-52.01-10.621-6.237 6.237 18.481 26.356 38.89 31.656 16.656 4.207 23.812 3.86 40.96.07 14.288-4.341 14.485-4.465 24.014-15.045 3.599-4.246 1.231-12.59-1.52-18.19 4.544-4.078 7.32-7.582 8.832-14.491.676-4.859.287-6.366-3.5-10.038-4.498-5.505-4.558-5.78-2.152-9.972 4.13-7.199 2.084-16.588-4.276-19.606-9.064-4.301-18.687-6.248-31.933-6.207zm-141.057 8.528c-1.214.061-2.401.638-4.057 1.756-6.018 4.062-6.271 4.49-6.271 10.578 0 5.704-.849 8.83-3.596 13.248-.794 1.278-1.923 4.014-2.51 6.08-1.42 4.29-4.771 9.323-6.525 15.174 2.489.015 7.87-.896 12.31-1.854 6.639-2.402 15.824-5.737 19.82-13.404 6.81-10.848 4.458-25.194-4.954-30.24-1.763-.945-3.003-1.4-4.217-1.338zm-326.152 11.09c-9.345-.197-17.2 4.533-17.067 20.619.88 6.09.688 6.602-3.412 9.136-5.336 3.298-5.675 10.732-.658 14.389 4.753 3.355 11.7 6.858 15.334 8.566-3.313 8.045.013 16.54 8.187 20.913 1.476.789 2.98 1.339 3.342 1.222 15.29-4.924 33.703-8.564 43.434-8.586 11.942-.027 23.64-8.525 26.973-19.597 1.045-3.473 1.54-3.51-8.375.642-17.656 7.395-31.933 8.86-43.133 4.424-1.087-.43 3.342-1.522 13.787-3.398 10.166-1.826 23.42-5.58 24.896-7.05 1.59-1.583.832-2.384-1.218-1.286-2.631 1.407-25.946-.298-25.946-1.899 0-.693 10.208-2.592 19.2-3.57 5.103-.556 9.507-1.232 9.785-1.502 1.397-1.359-15.342-7.568-26.106-9.684-9.42-1.852-9.753-2.189-3.098-3.125 6.885-.967 21.407.339 31.829 2.864 8.806 2.133 8.277 2.3 7.746-2.43-.562-5.004-2.784-9.254-7.227-13.816l-3.39-3.48-5.25.37c-2.888.205-8.68.707-12.872 1.115-14.545 1.416-25.672.631-34.617-2.44-3.358-1.14-6.874-2-10.258-2.294a28.896 28.896 0 00-1.886-.104zm55.935 77.943c-11.208.072-23.273 2.164-32.271 6.348-12.292 5.715-29.416 21.315-29.264 26.66.127 4.474 5.964 12.077 10.393 13.539 3.311 1.093 3.315 1.103 1.884 4.224-4.383 9.562 1.738 21.988 11.596 23.54 6.213.977 7.315 1.509 8.203 3.964.839 2.32 3.199 6.052 5.971 9.44 1.023 1.25 2.763 2.178 5.629 3.006 2.282.658 4.796 1.063 5.588.898 13.141-2.504 20.326-4.966 33.435-14.373 3.351-2.37 11.625-8.982 13.446-10.746.88-.852 3.008-2.74 4.73-4.193 4.784-4.04 12.088-15.403 11.535-17.946-1.402-6.45-.848-6.61-11.732 3.383-6.055 5.476-12.345 10.893-19.52 14.814-9.1 5.529-18.172 7.302-11.562 2.26 7.744-5.907 26.242-25.833 25.07-27.006-.878-.878-14.563 2.347-27.857 6.565-5.047 1.6-9.35 2.735-9.563 2.521-1.262-1.262 12.636-12.896 18.174-15.21 3.275-1.37 7.134-2.988 10.805-4.551-6.398-.804-12.701-.825-19.172-.098-5.968.52-15.185.935-20.48.922l-9.63-.026L72 359.953c7.746-6.771 5.471-6.204 40.715-10.137 11.764-1.312 14.73-3.624 10.42-8.123-4.516-4.713-15.06-7.216-26.875-7.425a92.251 92.251 0 00-2.229-.012zm352.531 6.555c-8.106.106-18.151 1.9-23.021 15.029h5.092c2.8 0 7.8-.571 11.11-1.27 6.418-1.354 17.125-1.7 21.058-.677 16.13 4.19 19.826 6.038 25.256 12.62 1.94 2.353 3.432 4.373 3.314 4.49-.226.227-4.517-1.37-6.217-2.314-12.016-6.665-34.095-9.756-45.875-6.423-3.67 1.038-3.45 1.475 1.602 3.18 2.376.8 5.48 2.406 6.9 3.568 1.42 1.161 3.89 2.673 5.49 3.359 2.674 1.146 7.586 6.104 6.813 6.877-.716.716-15.107-3.284-22.086-6.139-7.294-2.983-7.927-2.516-3.514 2.596.443.513 2.318 2.806 4.166 5.094 5.564 6.888 6.326 7.67 12.31 12.676 8.203 6.858 13.786 11.83 13.55 12.066-1.233 1.233-15.496-5.277-23.15-10.566-7.44-5.141-20.076-17.608-21.829-22.434-2.105-4.8-5 12.693 1.453 18.611 4.77 7.689 10.188 15.308 16.17 22.285 5.622 5.5 11.085 9.93 14.422 11.698 7.317 3.875 20.47 8.965 26.678 10.324 16.24 3.554 23.757-1.493 22.617-15.182l-.437-5.254c15.362-3.593 14.945-6.196 12.88-20.964-4.319-4.572 12.468-10.914 9.637-17.811-.043-19.462-30.502-35.483-67.191-35.34-2.009.017-4.495-.135-7.197-.1zm-128.318 7.619c-.628.01-1.463.978-2.799 2.77-6.606 8.858-12.724 21.789-12.724 26.886 0 5.571 6.676 23.372 10.107 26.95 6.594 6.895 16.38 12.73 27.604 9.093 18.408-4.722 26.202-12.468 32.048-29.414-10.357-.111-19.755 3.297-30.966 1.84-15.063-7.756-15.46-12.943-21.254-33.116-.663-3.066-1.102-4.65-1.758-4.955a.582.582 0 00-.258-.054zm-152.869 54.84c-5.01-.129-8.903 1.604-14.975 4.09-17.93 5.33-46.646 31.105-46.703 41.92-.027 5.17 3.572 7.945 11.893 9.163l4.549.666-.928 3.553c-1.258 5.138-.857 12.895 4.53 16.059 6.618 2.64 9.633 3.714 18.257.054 4.149-2.454 3.793-2.77 4.693 4.174 1.005 7.752 2.817 10.448 9.04 13.43 3.022 1.434 6.207 2.265 10.037 1.246 5.858-.663 13.568-8.784 21.177-22.309 3.787-6.73 3.378-6.074 9.64-15.476 3.05-4.576 7.945-10.877 10.88-14.002 4.769-5.078 7.087-7.962 10.607-13.197.592-.88 2.312-3.203 3.823-5.16 3.508-4.549 3.499-4.579-1.254-4.108-11.327 1.123-13.418 1.596-18.625 4.219-10.577 5.326-13.676 7.514-20.899 14.763-7.77 7.8-7.418 7.85-5.281-.755 1.9-7.649 7.559-15.092 16.879-22.2 3.93-2.996 3.575-3.4-2.983-3.4-10.494 0-21.694 5.059-36.931 16.684-.968.738-1.752 1.246-1.74 1.129.011-.118.53-1.653 1.154-3.413 3.266-9.219 6.129-11.848 21.385-19.648 3.432-1.755 6.24-3.299 6.24-3.43 0-.66-3.498-1.934-8.96-3.263-2.04-.497-3.835-.747-5.505-.79zm223.129.57c-3.292 0-8.144 3.35-12.434 8.584-4.224 5.153-4.424 4.561 2.983 8.77 16.817 9.553 26.365 19.313 31.402 32.093 2.276 5.773 2.172 6.13-1.016 3.524-11.667-9.502-19.385-19.404-33.119-27.102 0 4.422 18.552 34.165 25.201 40.404.396.37 2.447 2.485 4.56 4.698l3.839 4.023-4.16-2.186c-16.519-8.679-25.48-18.435-35.276-38.408-2.504-5.105-3.16-5.406-2.793-1.28.727 8.655 1.882 18.88 5.233 28.09-.134.134-1.78-1.409-3.658-3.427-5-5.372-8.148-13.686-9.895-26.133-.537-3.823-1.196-7.17-1.465-7.44-.968-.967-6.334 4.465-7.818 7.915-4.846 11.265 8.336 50.793 21.715 65.115 11.152 10.565 16.283 10.99 24.148-.12 1.965-4.364 2.62-4.506 9.488-2.052 16.368 3.538 19.793-4.393 21.784-17.857.388-3.038.44-3.102 2.277-2.735 10.829 2.166 17.574-8.717 13.328-21.504-6.293-18.953-41.181-52.972-54.324-52.972zM280.23 415.402c-.095-.014-.162-.004-.199.034-.145.145-.718 6.164-1.273 13.375-1.134 14.645-2.826 34.685-6.106 55.029-1.92 16.952-1.76 16.64-4.144 8.137-2.702-9.637-1.582-19.24-1.092-29.256.407-12.496 1.217-27.98 1.8-34.409 1.084-11.924.986-13.17-.927-11.816-5.327 3.43-9.407 5.437-11.861 12.313-3.113 11.03-4.446 16.3-6.219 24.591-1.059 4.95-2.63 12.023-3.492 15.72-.863 3.695-1.759 7.838-1.99 9.204-.502 2.763-4.194-21.63-1.477-33.127.544-2.891-.043-9.484-1.086-12.203-2.767-5.803-16.841 14.693-20.816 20.166-11.405 15.712-27.353 54.352-6.426 67.076 7.946 1.034 10.321 2.85 18.902-1.629l4.424-2.228c4.513 4.296 8.566 7.326 14.893 9.658 2.628.927 4.696 1.244 6.629 1.016 10.813.13 12.787-4.93 17.89-10.76 6.681 5.165 16.244 11.267 25.486 10.687 6.615-.687 10.112-5.718 15.631-12.353 13.72 8.647 14.51 7.424 23.362-4.867 2.724-5.622 1.98-11.326 1.812-17.6-.084-12.199-2.81-25.31-9.23-39.945 0-1.02-9.53-11.74-12.928-14.541-3.99-3.29-11.593-6.315-15.879-6.315-3.621 0-2.094 12.877 3.873 32.641 3.845 12.737 4.594 29.483.881 19.701-8.576-22.59-13.694-39.055-13.713-44.107-.011-2.995-2.878-10.044-6.736-16.565-1.025-1.732-8.563-7.411-9.989-7.627z" fill="#a61017"/><path d="M259.828 142.477c-39.534.77-79.488 20.26-101.717 50.822-29.22 40.173-40.007 104.006-23.41 138.531 11.263 22.738 20.67 37.657 54.334 55.967 16.587 7.76 17.205 7.97 29.35 9.933 30.318 4.904 46.614-2.862 69.36-33.05 4.616-6.137 10.766-15.026 15.43-23.88 8.16-13.856 14.02-28.47 20.073-42.88 8.414-21.322 14.307-39.331 22.488-61.285.806-1.57 2.427-4.668 3.604-6.885 6.795-12.798-.815-24.582-16.408-25.404l-6.97-.367c-1.24 1.625-2.48 3.251-3.722 4.876l-.365 12.852c-.37 13.057-1.06 17.858-4.52 31.412-6.258 24.06-15.037 47.923-26.115 70.08-9.053 18.324-14.145 27.085-20.275 34.881-14.024 17.44-31.079 24.61-55.285 21.082-23.064-5.429-36.801-14.54-48.75-32.33-6.423-9.71-11.745-20.466-15.696-31.545-8.32-20.105.177-66.721 17.547-96.266 13.886-19.003 24.007-36.66 65.32-49.962 23.367-7.086 41.8-8.936 60.337-3.297 28.271 8.6 47.131 18.691 63.322 33.88 7.033 6.692 11.362 13.311 16.904 23.717 5.818 8.966 10.613 17.946 14.197 29.121 1.316 4.629 2.897 21.74 2.52 27.27-2.366 45.088-5.537 45.58-19.361 71.559-4.35 6.671-9.043 14.212-14.38 21.171 10.7.199 18.093-.438 29.24-5.716 7.552-3.951 8.533-5.077 15.925-18.284 8.892-15.887 13.865-55.61 10.097-80.64-8.815-54.825-18.534-68.01-52.734-97.797-21.895-13.77-43.007-22.691-83.475-26.727a120.628 120.628 0 00-16.865-.84z" fill="#00552e"/></svg>