<svg xmlns="http://www.w3.org/2000/svg" width="636.675" height="604.692"><path d="M118.946 596.332c-22.158-12.145-34.027-19.805-42.797-44.439-.641-5.706 43.52-23.077 59.257-28.444 5.365 9.323 14.158 8.157 20.907 6.788 7.133-1.466 14.253-2.895 21.12-4.814 7.803-2.197 13.687-2.277 15.963-.217 2.167 1.96 1.857 7.32-.521 8.992-1.002.704-3.784 2.72-6.183 4.48-14.873 10.91-13.625 10.191-20.371 11.731-7.54 1.72-12.531 4.095-18.993 9.036-3.635 2.779-3.569 16.827.099 21.037 7.43 8.531 9.679 9.953 22.325 14.123 8.327 2.746 11.01 1.18 12.16 6.035-27.044 4.106-31.978 8.134-62.966-4.308zm263.577.432c.181-.472 1.05-3.564 1.93-6.87 4.948-18.601 21.444-35.536 34.613-35.536 3.994 0 10.115 7.192 15.143 17.793 5.489 11.572 11.014 15.028 26.768 16.743 8.252.899 10.857 1.34 10.848 1.84-12.915 8.874-32.454 9.822-47.672 10.026-7.362.252-41.767 1.1-41.63-3.996zm-185.537 2.34c1.613-2.61 8.027-6.17 11.834-6.568 13.611-1.422 18.705-5.817 19.581-16.896.295-3.732.813-5.676 2.09-7.842 3.445-5.974 3.262-9.142 3.262-15.36l-3.04.007c-8.958.288-19.548 8.315-25.725 12.767-14.052 10.417-41.74 9.445-28.725-1.378 6.327-7.521 11.252-10.244 22.868-17.022 5.65-1.981 11.077-2.026 16.935-1.9 17.453.374 18.782-9.26 4.456-32.294-1.752-2.816-2.355-2.312 7.47-6.24 9.548-4.372 11.941-8.295 16.075-16.181-.434-3.87-1.056-7.805-1.218-11.661 9.236-5.528 13.207-7.508 18.104-2.585 7.712.258 17.252-.615 23.738.256-8.186 16.376-12.103 20.78-18.204 29.129-8.008 10.505-9.579 16.308-6.95 25.662 1.354 4.815 12.168 13.76 16.635 13.76 3.725 0 12.182-6.47 12.965-9.92 1.806-9.613 2.976-13.793 10.826-21.12 8.5-8.203 13.7-9.652 24.168-8.32 13.469 10.649 10.551 23.451 6.007 32.806-11.52 13.132-15.626 18.552-39.425 17.097 0 .77 2.256 5.372 3.097 6.318.985 1.107.937 1.278-.777 2.753-2.074 1.783-2.035 1.862 2.05 4.119 2.432 1.344 2.955 1.94 2.806 3.2.423 4.17 2.689 6.752 5.85 8.826-48.461 17.294-60.353 17.093-91.537 18.62-10.309.875-15.77.864-15.216-.032zm143.807-14.689c-3.558-.871-3.494-1.041 1.755-4.645 12.002-8.241 22.417-36.838 20.888-57.352-.763-10.235-13.454-30.737-20.863-33.702-7.223-2.891-14.04-3.38-21.661-1.553-2.926.701-5.734 1.275-6.24 1.275-1.294 0-1.231-7.297.095-10.96 2.035-5.62 4.731-14.999 4.738-16.482.03-6.167-5.652-15.587-10.713-17.761-4.223-1.815-1.455-3.437 5.867-3.437 7.82 0 10.017-1.253 15.708-8.96 7.494-12.554 10.989-16.232 9.625-34.021 3.568.588 6.862 2.66 9.418 4.33 8.87 5.847 10.212 5.858 19.236.16 2.358-1.49 3.345-1.085 4.954 2.027 1.278 2.47.588 4.11-2.133 5.07-9.442 3.333-10.679 15.878-2.179 22.097 21.221 13.243 46.512 15.612 69.424 17.985 12.19 4.419-11.431 7.115-17.256 9.854-14.026 12.799-22.828 29.721-32.452 44.39-11.296 17.032-17.352 36.197-25.698 54.508-11.854 22.25 5.266 26.46 13.806 36.123-5.63 3.275-28.623-7.047-36.32-8.946zm157.92-8.936c0-.31 1.602-4.254 3.56-8.763 5.107-16.758 7.065-28.928-3.806-43.84-9.531 15.622-22.087 28.302-35.621 25.383-11.628-5.069-11.056-21.572-30.83-20.246-9.958.514-10.44 3.91-24.619 5.643-.673-3.354 2.59-9.848 6.296-13.882 8.277-8.404 13.169-19.164 17.513-28.98 6.968-17.144 19.99-28.812 27.792-28.714-.015-5.433-10.564-6.052-10.089-9.945 10.055-3.62 24.882-6.609 36.364-12.179 19.587-9.587 28.325-18.283 30.403-30.258 2.537-10.233 5.745-12.15 14.694-15.22 7.158 28.766 14.796 63.04 11.533 90.324-5.931 30.82-15.655 82.635-43.19 90.677zm-425.28-37.44c-2.303-30.397 1.506-54.102 4.8-72.32 10.201-45.11 33.923-94.937 55.679-131.52 8.91 26.344 26.225 26.212 40.32 17.635 7.194-3.927 12.505-10.454 16.26 2.135-14.682 10.923-36.333 19.434-43.841 36.678-3.75 9.435 5.837 26.751 14.811 26.751 2.593 0 3.634 2.228 4.093 8.75.285 4.945 1.272 9.71 2.435 14.493l-2.58 2.143c-12.45 12.44-1.591 23.346 4.062 35.465.922 1.984 1.231 1.792-19.88 12.304-14.92 9.263-20.468 8.653-17.41 24.76-8.715 4.986-18.405 9.176-26.43 13.107-9.566 4.383-25.983 13.837-32.32 9.618zm161.6-68.092c-2.288-.944-5.952-2.642-8.142-3.773-5.103-2.634-18.649-3.081-24.422-.806-3.663 1.444-3.555 1.517-6.1-4.13-7.474-16.586-11.495-20.8-19.852-20.8-4.173 0-5.687-8.432-3.332-18.56l.819-3.52c10.51 3.243 13.128-2.404 16.63-6.543 4.642-5.733 10.116-10.502 13.975-16.847 5.361-8.976 5.765-8.553 5.151 5.4-.83 18.868-1.055 17.482 5.222 32.15 4.965 11.604 15.625 14.374 23.487 6.103 1.555-1.636 2.731-2.093 7.68-2.986 7.438-1.342 8.011-1.784 8.879-6.85.732-4.272.662-4.67-2.99-17.147-2.458-8.395-3.05-22.296-2.02-47.4l.567-13.8 4.868-3.675c8.21-6.196 17.856-8.81 26.514-7.187 4.246.797 14.863 13.725 17.744 21.608 1.424 3.895 1.497 3.746-2.066 4.178-6.784.823-21.728 8.225-25.492 12.628-9.896 11.572-7.741 27.623 6.106 45.488 5.773 7.449 6.938 8.43 14.534 12.24 6.869 3.446 7.275 3.77 6.39 5.114-.663 1.006-1.911 1.325-12.344 3.152-23.344 4.088-32.542 8.836-33.606 17.345-1.007 8.064-9.642 12.152-18.2 8.618zm60.004-59.747c-3.692-5.635-2.77-10.316 3.14-15.939 8.777-8.352 13.073-4.944 9.455 7.501-2.099 7.22-9.948 12.478-12.595 8.438zm105.4-9.887c6.117-12.613 14.443-22.025 22.203-31.235 6.61-7.852 14.693-15.062 20.294-18.104 7.406-4.022 16.196-8.163 20.836-9.814 4.84-1.724 8.058-3.843 8.066-5.313 4.775-12.197 3.357-20.067 3.534-31.638 12.542 8.504 23.83 22.85 31.412 33.424 8.79 12.274 20.73 40.808 20.73 49.54 0 3.314-9.205 6.047-12.528 3.72-.712-.499-3.152-3.627-5.423-6.953-9.226-13.51-22.056-15.594-28.47-4.627-8.44 14.467-18.762 19.196-29.335 20.195-15.215 4.271-25.668 9.203-51.318.805zm-24.615-11.425c-.02-13.142-6.722-17.814-28.15-19.622-9.033-.763-9.6-1.017-9.6-4.31 0-3.83-1.61-8.209-6.877-18.695-9.047-18.014-9.016-18.912.798-23.559 4.77-3.26 10.662-4.254 15.36-4.608 6.738 6.343 11.14 15.236 16.684 21.392 12.767 5.602 18.776.738 24.962-4.427 14.993-12.92 41.737-21.814 50.977-16.954 9.645 5.074 8.86 10.787-3.223 23.442-8.4 9.952-15.28 13.865-28.6 25.973-12.57 8.9-19.14 21.281-28.16 32.67-5.355-1.996-4.163-5.858-4.171-11.302zm-219.341-85.991c9.618-13.003 24.624-22.84 33.85-35.602 4.438-5.057 26.698-31.344 28.015-18.557.524 5.06-.292 6.138-5.578 7.37-7.026 1.639-12.295 8.285-12.296 15.51 0 5.308 3.656 36.39 5.216 44.34 2.024 17.99 3.588 21.149-6.315 29.814-4.676-24.181-17.902-39.714-42.892-42.875zm161.11 15.385c-10.32-10.557-20.858-13.767-40.256-12.261-8.626.67-21.702 2.672-23.103 3.537-.265.165-.446-7.112-.4-16.17l.08-16.47-2.415-4.868c-3.54-7.136-6.85-9.764-15.184-12.057-8.641-2.378-9.59-3.156-9.654-7.927-.03-2.171-.277-5.676-.55-7.788-.938-7.274 1.247-9.578 16.324-17.21 22.547-12.5 44.419-19.28 65.24-28.23 6.928-.078 15.513-.154 20.48 1.856 25.456 10.044 49.565 27.888 72 39.414 12.304 6.196 19.21 10.693 28.159 18.338 9.055 7.527 19.084 15.781 25.865 24.089 2.82 3.48 2.782 3.866-.3 3.034-7.61-2.055-23.36-2.4-31.496-.688-14.05 1.318-27.863 7.658-38.927 11.557-9.002 3.958-18.454 8.752-26.985 13.874l-3.598-.875c-10.9-2.65-13.376-1.78-27.598 9.707-4.228 3.414-3.414 3.505-7.683-.862zm153.671-82.68c-9.103-38.905-3.256-45.452 2.15-62.983 2.393-7.586 16.329-28.062 17.985-26.425-3.503 9.627-10.199 20.212-10.595 30.92-.025 6.793 6.269 16.701 11.575 18.223 7.954 2.281 13.95-.039 22.656-8.767 5.688-6.147 20.693-18.807 29.616-19.892-2.889 8.38-12.767 18.681-28.383 29.6-7.753 5.422-8.072 9.38-1.377 17.095 5.809 6.694 11.078 6.702 22.472.035 3.735-2.186 5.294-.32 2.95 3.526-3.508 5.752 3.206 11.454 12.469 10.589 3.84-.359 6.469.04 10.718 1.623 2.148.801 10.008 8.118 10.687 9.948 1.599 4.314-.559 8.175-7.02 12.563-8.843 6.005-13.497 5.45-27.984-3.344-2.206-1.34-4.192-2.435-4.414-2.435-.66 0 .377 11.87 1.435 16.436 1.76 7.584 6.336 12.482 16.72 17.895 5.325 2.776 5.33 2.585-.13 4.81-32.928 11.73-73.65-15.468-81.53-49.417zm118.67 32.708c-.152-.247 1.186-2.73 2.974-5.52 8.66-13.508 10.048-20.183 5.982-28.778-2.315-4.893-4.8-6.723-12.518-9.22-3.684-1.191-6.929-2.364-7.212-2.606-.622-.533 4.55-2.824 9.258-4.102 16.035-4.353 21.84-17.358 12.922-28.952-4.834-6.43-10.342-13.624-17.505-17.294-6.611-3.138-8.193-2.915-12.896 1.816-7.122 7.164-7.472 11.594-1.402 17.77 4.99 5.076 3.68 7.545-5.33 10.045-4.346 1.206-17.884 4.09-19.2 4.09 9.747-12.076 13.381-23.107 19.235-35.146 7.82-16.05-4.432-27.405-18.807-17.433-12.326 8.55-17.437 11.234-25.001 13.127-5.96 1.491-14.789 1.066-12.084-.582.548-.334 2.276-2.376 3.84-4.54 2.86-3.953 17.776-22.669 18.544-23.267 3.414-2.657 2.174-11.648-2.287-16.586-1.316-1.456-2.28-2.745-2.142-2.864.658-.57 8.535-3.218 13.646-4.588 17.205-4.61 32.453-3.345 47.404 3.936 27.695 13.486 38.407 23.637 45.404 43.024 8.684 26.908 2.138 63.263-11.822 84.082-5.98 7.204-20.462 24.442-31.003 23.588zm-540.18-8.929c-13.598-2.707-23.177-7.498-29.577-14.794-2.071-2.362-6.833-11.509-5.991-11.509 18.483 7.967 34.778 18.52 38.378-6.08.983-7.987-.873-17.072-3.233-23.502-2.964-7.725-2.157-12.55 2.113-12.636 2.075-.042 7.23 5.96 14.63 17.036 7.946 11.894 9.844 13.34 16.917 12.885 8.069-.518 11.264-3.278 11.23-9.7-.02-3.82-5.366-14.13-8.71-16.801.458-6.84 7.607.917 9.194 2.376 10.47 9.662 12.323 10.317 21.005 7.419 9.003-3.006 12.107-14.778 9.598-36.411-1.015-8.755-1.457-20.736-.789-21.404 9.118 7.399 10.36 27.432 21.093 35.035 2.628 1.652 8.675 1.317 12.629-.7 3.448-1.759 3.408-1.841 2.66 5.549-8.215 29.43-26.568 50.468-50.666 62.6-18.69 9.424-44.112 13.896-60.48 10.637zm-20.59-44.093c-2.98-2.892-6.583-12.03-6.612-16.77-4.328-12.925-13.982-11.509-22.077-6.46-2.6-19.797 5.958-40.99 15.04-53.31 28.39-44.595 124.472-48.838 135.192.57-6.663-6.473-17.053-11.58-24.93-10.244-8.539 1.649-10.233 4.335-8.879 14.084 1.282 9.23-4.083 31.415-7.89 32.623-11.35-2.34-25.115-34.562-37.485-24.632-2.405 2.657.092 10.803 7.132 23.267 6.673 11.813 5.182 14.558-3.395 6.25-16.12-15.614-34.726-20.77-38.563-10.688-1.177 3.09-.033 14.06 2.308 22.14 3.085 10.647 1.078 23.04-4.046 24.989-2.524.96-3.126.77-5.794-1.819zm355.064-45.844c-36.58-11.025-54.958-19.087-62.777-63.086-2.118-17.83-3.13-35.547 7.2-50.88.406-1.65.642 5.172.478 13.803-.467 24.57 3.376 36.01 13.723 40.848 13.987 6.54 23.145.167 29.334-20.41 8.574-28.506 9.789-30.777 12.56-23.489 1.447 3.808-3.475 25.622-7.419 32.878-5.965 10.975-2.777 18.374 9.21 21.368 10.509 2.626 14.217-.803 17.15-15.857.354-1.825 4.222-3.881 4.997-2.658 4.694 7.412 11.584 10.925 15.527 7.917 5.813-4.37 17.992-4.958 24.242-2.028 4.613 2.523 4.911 4.04 1.934 9.835-5.336 10.382-8.932 12.219-22.935 11.713-9.886-.357-10.15-.254-7.913 3.078 5.355 7.919 11.368 22.627 21.472 21.805l4.871.397c-19.545 17.549-44.642 17.925-61.654 14.766zm-204.43-35.509c12.818.68 38.554 2.53 50.75-9.017 7.808-7.653 10.124-13.1 8.315-19.56-1.663-5.942 3.074-6.247 9.236-.592 12.12 7.662 31.947 5.694 43.193-.09 3.644-1.988 3.697-1.851 1.29 3.364-1.116 2.42-2.839 6.775-3.828 9.68-4.208 12.353-16.96 22.666-33.653 31.197-32.224 10.122-60.648 7.493-75.303-14.982zM472.5 129.64c-.025-.665 1.249-3.882 3.592-9.076 1.718-3.809 3.411-9.224 3.06-9.791-.188-.306-.597-2.118-.908-4.028-1.158-7.116-6.411-12.338-15.777-15.68-14.129-5.044-14.435-5.392-9.673-10.994 6.286-7.397 6.825-8.32 6.853-11.747.05-5.973-.764-7.376-7.333-12.64-11.797-9.454-30.841-15.92-35.641-12.103-3.73 2.966-6.983 14.271-5.113 17.766.643 1.2 5.858 3.725 13.074 6.328 3.603 1.3 3.627 1.429 1.003 5.288-1.947 2.863-3.724 4.838-14.783 16.435l-4.882 5.12-.014-8.96c-.018-11.46-.928-20.104-2.627-24.96-.74-2.112-1.905-6.413-2.59-9.558-3.627-16.662-16.825-19.195-22.371-4.293-4.423 11.883-9.565 20.853-15.462 26.971-9.783 10.15-12.502 9.848-8.638-.96 1.233-3.447 1.37-5.117 1.334-16.32-.057-17.936-.91-19.97-9.205-21.941-3.792-.9-3.795-.87.786-6.801 7.664-9.922 24.32-18.791 44.969-23.948 24.496-6.117 35.759-5.093 62.08 5.646 7.737 3.157 18.935 12.53 26.507 22.186 14.172 26.159 17.208 58.69-.924 89.44-2.3 3.923-7.275 9.784-7.317 8.62zm-278.106-9.778c-4.707-.788-5.19-2.178-2.764-7.945 2.256-5.363 5.197-8.937 11.333-13.772 4.814-3.793 9.012-9.592 13.614-18.81 2.928-5.864 1.977-16.743-1.844-21.099-2.772-3.16-14.684-4.6-22.953-2.776-10.8 2.383-12.85 4.058-27.688 22.618-4.42 5.528-4.323 5.541-4.752-.659-.663-9.562 2.53-25.786 6.736-34.228 8.259-16.578 10.007-18.992 19.445-26.841C204.109 2.867 228.698-.467 248.203 5.587c25.754 10.427 27.818 10.696 41.925 32.402 2.113 4.186 1.919 4.537-2.01 3.64-13.03-1.874-19.692 3.876-28.965 10.941-.39-.454-5.56-11.884-5.56-12.29 0-1.726-6.085-9.867-7.858-10.513-6.698-2.44-14.611 1.04-16.469 7.24-.915 3.056.915 6.289 8.11 14.325 9.623 10.748 9.513 10.496 5.933 13.635-8.369 7.335-11.062 16.54-7.316 25.01 1.935 4.375 1.928 3.977.09 5.181-1.447.948-1.62.88-4.144-1.644-5.324-5.324-15.466 1.457-15.466 10.341 0 4.998-2.179 9.597-5.424 11.45-6.408 3.66-12.33 5.28-16.656 4.557zm-27.166-5.322c-1.526-6.272-6.573-12.468-6.848-18.422 5.025 2.347 10.953 2.62 14.854-.097 2.752-1.977 3.287-2.824 6.851-10.851 9.547-11.81 11.88-11.296 17.365-7.871 5.647 3.565 6.308 7.924 1.971 13.004-7.942 9.305-14.06 14.474-20.147 17.02-6.837 2.037-12.46 12.456-14.046 7.217zm100.126-23.349c-8.676-2.063-13.207-7.416-10.183-12.03.965-1.474 9.844-7.585 12.252-8.433 12.844-10.086 20.43-12.348 28.902-14.586 2.553 2.674 4.836 20.811 3.32 26.376-2.19 8.025-5.54-9.418-10.946-1.417-1.416 2.293-6.173 6.573-10.534 9.479-2.94 1.959-6.444 2.126-12.811.611z" fill="#333c5e"/></svg>