<svg xmlns="http://www.w3.org/2000/svg" width="629.092" height="777.115"><path d="M193.108 776.305c-1.153-.24-1.44-.734-1.44-2.48 0-3.127.786-3.547 13.12-7.012 11.2-2.888 22.301-7.55 32-12.153 9.367-4.455 11.965-5.608 15.68-6.962 14.907-5.43 17.529-9 21.689-29.524 1.858-9.168 2.132-12.82 1.897-25.315l-.248-13.128-2.394-4.91c-3.875-7.946-4.466-8.23-19.21-9.204-11.622-.768-17.664-1.365-28.614-2.825-2.64-.352-8.544-.93-13.12-1.283l-16.64-1.284c-9.293-.715-12.72-1.696-15.29-4.377-2.38-2.485-1.09-3.914 3.53-3.914 9.17 0 12.948-1.903 22.571-11.37 3.482-3.427 6.13-5.87 5.882-5.43-.29.518-.017.8.772.8.671 0 2.776 1.52 4.678 3.378 9.25 9.038 18.339 14.361 23.152 13.56 9.91-1.65 17.458-11.521 14.846-19.414-2.735-8.265-9.88-18.644-12.835-18.644-.195 0-1.559-.817-3.03-1.816-1.472-.998-4.065-2.5-5.762-3.336-4.004-1.973-3.896-1.396-1.627-8.679 2.53-8.115 2.543-8.138 4.76-8.38 2.726-.297 5.558 1.742 8.561 6.164 5.155 7.59 14.97 8.85 21.472 2.757 8.145-7.632 12.544-9.43 23.083-9.43 9.327 0 9.851.19 12.098 4.362 1.823 3.385.5 8.244-3.45 12.676-3.793 4.256-4.4 4.33-12.285 1.495-10.564-3.798-17.447-3.001-19.58 2.267-3.865 9.541.127 17.833 12.465 25.896 21.143 13.816 21.756 14.108 29.59 14.092 9.292-.02 11.911-1.526 13.882-7.988 2.258-7.402.373-16.852-3.643-18.258-3.61-1.264-3.64-2.052-.21-5.588 3.448-3.557 9.362-11.986 10.096-14.39 1.293-4.236 5.475-4.615 8.914-.808 4.76 5.268 10.721 6.477 18.96 3.844 8.642-2.76 9.077-.396 2.83 15.4-2.233 5.647-2.3 6.048-1.612 9.488 3.611 18.053 21.285 22.046 34.108 7.707 4.904-5.485 6.87-5.676 10.754-1.048 4.222 5.03 6.812 7.412 8.532 7.843.946.238 1.879.688 2.072 1.001.496.803 6.183.708 9.753-.163 4.72-1.15 11.77-6.669 16.642-13.028 2.162-2.82 5.806-9.807 8.1-15.528 4.009-10.001 5.96-14.232 6.564-14.232 1.93 0 3.176 2 3.27 5.245.417 14.35 2.43 21.12 8.005 26.916 7.147 7.43 8.707 7.878 22.887 6.576 5.328-.489 5.539-.457 6.56 1.002 1.68 2.397 2.29 2.048-9.349 5.347-10.045 2.848-18.615 4.408-36.956 6.727-5.808.734-12.576 1.62-15.04 1.97-5.345.756-14.137 1.616-25.92 2.534-4.752.37-11.458.954-14.903 1.298-3.444.344-8.998.625-12.34.625-6.465 0-9.76 1.098-14.78 4.924-6.267 4.776-6.475 22.906-.59 51.396 2.198 10.64 12.232 19.77 30.603 27.845 12.356 5.64 26.235 9.995 37.69 12.711 1.783.412 2.943 2.492 3.26 5.844l.18 1.92-26.24-.204c-14.432-.113-27.536-.236-29.12-.273-1.584-.037-5.76-.06-9.28-.05-3.52.01-10.432.025-15.36.033-10.223.017-27.69 1.223-32.557 2.248-3.258.686-9.994.787-25.363.379-4.917-.13-9.726.117-12.48.642-3.291.629-7.536.745-16 .439-7.043-.255-13.26-.156-16 .255-2.464.37-8.224.834-12.8 1.033-4.576.198-10.7.824-13.608 1.391-4.551.887-6.024.918-10.56.22-3.07-.473-7.143-.643-9.752-.407-7.226.653-13.97.907-15.52.585zm-28-120.33c-8.399-2.22-16.639-4.542-25.28-6.9-26.334-7.181-33.33-10.05-63.68-26.108-22.326-11.813-25.361-13.928-33.28-23.187-7.79-8.543-14.22-17.442-19.753-27.206-5.574-7.453-9.211-14.974-12.371-22.4-3.502-8.333-7.013-22.4-5.591-22.4.2 0 1.569.824 3.04 1.83 5.142 3.518 5.196 4.873 19.635 6.82 6.113.825 7.587 3.031 7.657 5.171 2.346 3.826 5.532 7.21 8.295 9.915 7.9 7.707 17.847 12.617 31.408 15.503 11.727 3.155 24.804 4.15 34.88 4.709 10.03.539 32.232-3.516 48.512-8.86 3.922-1.288 5.706-1.308 12.768-.143 3.845.634 3.653 5.725-.32 8.48-12.204 8.467-11.753 19.837 1.056 26.6 1.724.91 3.985 1.655 5.023 1.655 1.617 0 12.25-4.802 14.29-6.453 3.16-2.56 15.912-3.61 18.241-1.502 6.126 5.545-3.917 18.41-21.81 27.938-10.017 5.335-11.822 6.443-15.247 9.356-6.375 5.422-7.061 8.49-3.249 14.527 3.416 5.41 3.543 7.793.578 10.853-2.178 2.247-2.43 2.342-4.802 1.801zm338.26-10.4c-2.079-1.602-1.217-3.503 4.14-9.131 10.381-10.906 14.303-20.31 11.385-27.296-3.966-9.491-17.542-9.558-19.999-.098l-1.329 5.118c-.737 2.842-1.91 3.436-6.097 3.09-5.078-.418-6.584-6.373-3.774-14.924.463-1.408 1.61-5.412 2.551-8.898.94-3.487 2.12-7.501 2.621-8.922.754-2.136.78-3.441.151-7.549l-.76-4.966-4.374-4.237c-5.185-5.022-5.295-5.6-1.386-7.33 11.043-4.885 11.627-6.703 12.036-37.458.4-30.074-.664-28.183 11.976-21.31 1.39.755 2.062 1.638 2.193 2.88 1.72 16.31 5.902 32.32 10.082 38.59 8.386 12.58 25.08 18.85 45.204 16.98 4.4-.41 8.576-1.06 9.28-1.445.704-.385 4.659-2.312 8.788-4.28 8.62-4.111 11.19-6.68 15-14.991 3.197-6.978 6.795-10.984 9.866-10.984 2.44 0 5.066-2.179 5.066-4.203 0-.915 2.416-1.914 3.063-1.267 1.327 1.327-14.02 39.762-19.505 48.852-7.89 14.576-18.83 27.146-31.53 37.8a240.304 240.304 0 00-5.44 4.62c-3.331 2.938-10.716 8.355-16.2 11.886-4.305 2.77-34.883 18.435-37.908 19.419-.88.286-2.032.689-2.56.895-.528.207-1.67-.172-2.54-.842zm-107.365-13.22c-.553-.252-.674-1.428-.408-3.989.576-5.535-2.188-15.911-6.483-24.338-2.64-5.182-2.703-5.684-.804-6.518.792-.347 4.32-2.455 7.84-4.683 6.474-4.098 8.123-5.836 11.273-11.88.84-1.613 1.75-3.098 2.023-3.3 1.176-.872.509-4.933-1.384-8.42-2.599-4.787-2.524-5.944.574-8.891l2.566-2.441 11.674.14c11.663.14 11.678.138 15.692-1.716 10.244-4.73 16.563-19.58 18.546-43.585.476-5.759.477-5.76 2.34-5.972l1.865-.213-.412 22.613c-.523 28.688-.472 28.914 7.155 31.27 3.073.95 3.668 1.387 4.013 2.949.878 3.983.677 4.462-2.805 6.707-4.95 3.192-7.26 9.262-9.532 25.046-1.322 9.193-6.791 5.915-6.115-3.664.75-10.633-1.777-19.109-6.528-21.889-1.62-.947-3.325-2.102-3.79-2.565-.484-.481-2.284-.842-4.206-.842-12.322 0-19.782 11.288-18.666 28.244.555 8.441-2.255 19.678-6.56 26.23a4603.754 4603.754 0 01-4.283 6.504c-2.837 4.298-9.748 6.945-13.585 5.202zm-66.954-39.14c-.53-1.673-1.6-5.127-2.38-7.678-1.71-5.597-3.453-7.564-9.124-10.299-7.53-3.631-8.144-8.414-1.083-8.434 8.627-.024 11.88-1.739 15.154-7.99 4.776-9.115 6.177-17.568 6.95-41.92.512-16.155-.101-14.38 5.396-15.63 9.002-2.047 14.834-.283 16.826 5.092 1.173 3.167 1.184 3.111-4.607 24.298-2.408 8.807-2.593 9.802-2.593 13.945 0 12.618 17.46 18.316 27.211 8.88 1.717-1.66 3.51-3.875 3.51-4.335 0-.207.406-1.284.904-2.393 1.968-4.386 2.579-7.643 5.512-29.38.818-6.061-.294-6.677 4.039-5.649.323 9.197.889 28.205 5.63 37.622l2.53 4.61-1.243 2.439c-2.175 4.264-4.298 5.93-6.682 5.247-5.434-1.558-10.63.364-22.911 8.478-7.824 5.169-19.284 10.974-28.152 14.261-2.438.904-3.294 1.7-5.076 4.721-4.78 8.103-8.107 9.498-9.811 4.114zm-91.024-10.88c-1.171-8.061-8.22-18.59-13.612-20.333-4.852-1.568-26.395-1.635-30.611-.096-1.467.536-3.915 1.156-5.44 1.38l-2.774.405-1.797-3.239c-1.797-3.238-1.82-4.518-.085-4.518 2.203-1.191 4.244-3.167 6.055-4.37 8.767-5.799 14.518-12.145 22.485-24.818 4.766-7.58 5.837-9.91 7.915-17.212.6-2.112 1.61-5.424 2.242-7.36.633-1.936 1.352-4.6 1.599-5.92.488-2.609.728-2.768 2.331-1.55 1.221.93 1.621 4.949 2.147 21.55.48 15.19 2.216 30.533 3.692 32.64 2.449 3.496 12.455 13.02 14.212 13.528 1.054.304 5.433.552 9.732.552h7.815l3.549-3.464 3.548-3.465v-4.814c0-2.647-.26-5.497-.578-6.333-2.5-6.576-1.472-33.94 1.91-50.85.825-4.126 1.456-4.277 16.52-3.941 4.94.077 9-.97 12.555 2.467 6.128 5.923 7.003 14.76 3.098 31.28-1.05 4.44-1.301 5.117-4.551 12.24-7.108 15.58-7.056 24.526.163 28.362 2.222 1.18 3.93 2.541 4.061 3.234.164.868-.01 1.049-.636.658-.474-.296-1.15-.584-1.502-.642-27.807-4.514-46.12-1.192-51.775 9.393-.457.856-1.507 2.851-2.333 4.435-1.907 3.656-2.169 3.819-6.172 3.83l-3.321.01zM77.92 533.613c-3.916-.698-4.01-1.166-.808-4.047 7.234-6.51 11.603-11.235 12.87-13.918 2.34-4.96 3.816-9.864 3.475-11.546-.18-.885-.488-2.617-.685-3.849-1.684-10.508-8.42-20.119-17.584-25.086a682.333 682.333 0 01-6.4-3.51c-8.006-4.485-15.49-4.416-24.255.226-7.853 3.711-15.69 9.167-20.66 17.49-4.791 10.308-5.511 16.835-3.334 30.24.448 2.762.31 2.808-5 1.68-5.555-1.18-11.26-4.295-13.274-7.25L.5 511.454c1.804-38.707 3.217-51.463 5.21-69.76 5.538-39.696 18.921-83.298 32.962-119.214 15.906-35.004 34.082-68.667 55.704-99.595 25.007-27.658 44.356-65.224 70.395-90.533 5.612-5.215 13.49-13.274 15.093-15.44 2.36-3.19 7.423-3.652 12.386-1.131 3.217 1.634 3.431 1.965 4.625 7.134 1.838 7.959 9.518 9.926 20.073 5.143a2216.84 2216.84 0 006.264-2.86c6.79-3.113 8.003-3.123 10.856-.09 1.32 1.404 2.4 2.798 2.4 3.099 0 .646-2.541 5.504-3.121 5.967-.22.176-1.33 1.404-2.467 2.728-1.136 1.324-3.583 3.75-5.439 5.39-8.08 7.145-8.063 9.004.159 17.424 6.98 7.148 6.975 7.098.675 7.098-2.79 0-7.183.289-9.76.642-2.578.352-7.567.92-11.087 1.26-10.585 1.024-21.491 2.417-21.867 2.792-.386.386 2.433 8.192 4.43 12.266 1.367 2.789 4.805 6.718 5.883 6.724.37.002 1.538.468 2.594 1.034 3.484 1.87 9.503 1.837 16.64-.09 12.231-3.302 14.004-3.44 23.164-1.804l5.956 1.064v6.161c0 4.103-3.416 10.705-6.93 15.313-4.675.839-8.191 1.147-11.478-.467-4.952-1.022-7.728-4.526-10.654-7.299-5.327-5.09-6.114-5.443-7.85-3.522-7.278 8.059-6.577 19.115 1.608 25.371 2.509 2.455 2.7 2.057 4.466 3.19 5.71 4.067 22.475 6.058 30.547 3.629 1.711-.515 3.157-.875 3.211-.8 1.202 1.643.715 3.681-1.16 4.862-6.13 3.857-9.444 13.787-6.792 20.353 1.626 4.025 1.754 7.237.29 7.292-.735.028-3.706.248-6.601.49l-5.264.437-.402-2.687c-.616-4.107-4.274-14.28-6.241-17.354-6.605-10.324-24.98-5.719-22.812 5.717.698 3.678.73 13.462.053 15.893-.343 1.23-1.012 1.686-2.976 2.029-1.394.243-3.399.635-4.455.871-1.056.237-3.36.681-5.12.988-5.05.88-11.875 2.987-12.856 3.968-1.002 1.002 5.404 13.972 8.573 17.358 3.93 4.2 9.45 5.628 15.109 3.911 3.85-1.168 3.344-2.017 4.184 7.008 1.078 11.59 3.93 15.234 12.225 15.62l4.834.224 2.58-3.422c3.94-5.225 6.631-14.427 6.631-22.678 0-1.905.216-3.47.48-3.476.264-.007 3.36-.43 6.88-.94 10.323-1.495 9.28-2.303 9.28 7.192 0 15.4-3.972 27.292-11.952 35.787a3086.53 3086.53 0 00-5.467 5.84c-1.66 1.778-3.604 3.42-4.32 3.647-.715.227-1.3.635-1.3.907 0 2.706-9.764 3.157-14.797.683-2.246-1.104-5.668-2.534-7.604-3.179-1.936-.644-4.672-1.676-6.08-2.293-1.408-.616-4.432-1.528-6.72-2.026-16.324-3.554-18.928-3.44-40.188 1.753-4.328 1.057-8.432 1.921-9.12 1.921-.688 0-1.252.288-1.252.64 0 .352-.43.64-.958.64-.527 0-2.759.82-4.96 1.824-2.2 1.002-7.078 3.148-10.837 4.768-10.57 4.554-19.845 11.733-28.69 22.208-1.933 2.288-4.306 4.975-5.274 5.97-.969.995-1.936 2.507-2.15 3.36-.214.853-.646 1.55-.96 1.55-.314 0-.57.382-.57.849 0 .466-.72 1.525-1.6 2.351-.88.827-1.6 1.721-1.6 1.987 0 .267-1.276 3.168-2.834 6.449-6.699 14.101-7.563 19.227-5.593 33.164 2.028 14.351 15.237 28.117 32.426 33.794 13.233 4.37 19.567 5.525 39.36 7.18 15.397 1.288 24.078 6 28.271 15.346a236.35 236.35 0 002.093 4.544c6.646 13.795-.48 28.146-17.884 36.01-2.112.955-4.342 2.015-4.957 2.355-2.957 1.637-21.651 7.198-28.963 8.614-6.272 1.215-34.057 1.95-39.188 1.037zm487.188-1.889c-1.056-.115-2.193-.475-2.528-.8-.334-.325-1.24-.59-2.012-.59-6.155 0-12.226-3.829-13.956-8.8l-.946-2.72h8.474c6.208 0 10.004-.348 14.2-1.3 3.15-.715 6.736-1.471 7.968-1.681 6.52-1.11 12.605-5.33 18.24-12.647a212.211 212.211 0 013.368-4.254c.796-.969 2.812-4.307 4.48-7.42l3.032-5.659.074-8.64c.095-11.26-.053-10.435 2.28-12.716 1.12-1.094 1.834-2.189 1.59-2.433-.729-.73-3.864 1.98-5.007 4.326l-1.064 2.183-.685-1.6c-3.957-9.239-13.218-17.042-22.447-18.913-1.22-.247-2.66-.69-3.2-.982-.54-.293-2.42-.851-4.18-1.24-14.002-3.098-21.176-2.148-34.24 4.537-8.336 4.264-16.666 16.967-20.744 31.632l-1.422 5.115-2.517-.188c-3.975-.295-8.848-1.876-10.68-3.464-1.973-1.712-2-.262.508-26.097a4158.89 4158.89 0 001.55-16.32c.357-3.872.944-8.912 1.304-11.2.36-2.288 1.24-8.768 1.955-14.4 1.248-9.838 3.362-23.732 5.443-35.785 3.467-20.069 2.305-34.42-3.167-39.133-3.376-2.908-3.527-3.021-6.579-4.948-1.412-.891-2.973-2.006-3.47-2.477-1.083-1.028-5.431-3.095-6.523-3.1-.428-.003-1.643-.49-2.699-1.081-1.484-.833-3.639-1.086-9.503-1.116l-7.584-.04.371-2.72c.32-2.34 1.07-3.409 5.39-7.68 4.612-4.56 11.006-11.814 11.006-12.487 0-.155 1.312-2.27 2.915-4.698 2.894-4.383 9.885-18.125 9.885-19.43 1.065-3.358 2.9-6.68 3.846-9.945 2.014-7.086 3.11-11.882 3.507-15.36.24-2.112.554-4.56.695-5.44.142-.88.446-4.24.676-7.467l.418-5.867 4.55-2.085c11.006-5.044 19.146-12.52 22.367-20.541l2.121-5.281-1.844-4.82c-2.428-6.342-3.544-7.351-10.376-9.377-3.66-1.497-5.024-.927-8.632-.171-3.707 1.925-5.168 3.104-5.168 4.17 0 .463-.72 2.416-1.6 4.34-.88 1.923-1.6 3.732-1.6 4.018-.006 6.091-17.555 10.39-25.601 6.272-5.757-2.947-5.16-14.045 1.269-23.546 1.854-2.741 2.477-3.346 8.03-7.791 3.471-3.48 7.29-4.937 10.747-7.286 1.471-1.008 3.251-2.015 3.955-2.239 2.077-.66 4.16-4.322 4.16-7.312 0-3.384 1.54-4.276 8.48-4.912 4.292-.393 5.522-.879 5.522 0 2.353 2.477 4.771 5.514 6.61 7.976.912 1.232 2.203 2.816 2.87 3.52 6.92 9.377 15.922 21.192 23.558 32.64 1.408 2.112 2.884 4.128 3.28 4.48 11.505 16.58 22.622 35.405 31.81 53.12 7.21 13.899 8.89 19.017 12.91 39.36a1121.286 1121.286 0 007.406 31.04c4.346 17.034 4.861 19.619 8.287 41.6 3.124 20.047 3.138 84.732.023 106.148-.366 2.514-1.262 8.748-1.992 13.852-2.092 14.64-4.351 18.656-12.444 22.121-5.404 2.314-11.051 5.12-15.36 7.631-3.962 2.31-6.163 3.412-10.88 5.446-4.42 1.907-14.926 3.278-20.48 2.672zM55.988 511.95c-4.726-1.688-9-12.421-6.742-17.527 1.67-6.344 6.466-6.835 11.323-6.91l5.755.901c3.516 3.667 4.876 4.924 4.01 9.827-1.748 9.895-8.081 15.947-14.346 13.71zm335.529-11.548c-.787-.961-1.435-2.188-1.44-2.725-.075-8.56-11.159-26.852-18.218-30.066-14.9-6.782-27.15-7.09-35.566-.895-2.945 1.868-6.086 4.124-8.262 6.217a888.075 888.075 0 01-8.59-5.987c-11.054-7.804-22.28-9.986-30.959-6.017-7.556 3.456-8.139 3.755-8.619 4.426-.95 1.328-1.092-.227-.382-4.178 1.804-10.037-1.749-17.243-8.5-17.243-.781 0-4.118-.864-7.414-1.92-10.268-3.289-14.573-2.176-21.638 5.593-7.636 8.398-11.66 17.91-12.467 29.468-.527 7.558-.791 8.037-3.952 7.165-2.481-.686-3.11-2.354-4.096-10.866-1.96-16.927-17.534-38.394-27.858-38.4-.545 0-1.275-.283-1.622-.63-.863-.863-19.97-7.05-21.773-7.05-.797 0-2.14-.262-2.984-.583-.845-.321-4.823-.758-8.842-.97-20.708-1.097-25.482-1.564-28.107-2.752-10.694-4.842-15.745-17.467-11.08-27.695.723-1.584 1.424-3.241 1.559-3.683.134-.442 1.971-2.816 4.082-5.275 7.487-8.72 16.766-11.777 35.84-11.805l12.16-.018 3.84 2.172c2.111 1.194 5.479 3.83 7.482 5.86l3.643 3.69-.123 7.57c-.105 6.45.067 7.948 1.157 10.127 3.417 6.825 20.193 11.233 30.767 8.084 7.424-2.211 17.037-14.81 16.068-21.06-2.075-13.384-2.915-16.584-5.994-22.848-2.603-5.295-5.174-8.96-9.343-13.317-3.717-3.885-3.635-4.274 1.25-5.897 2.118-.704 5.84-2.488 8.272-3.965 2.431-1.477 6.58-3.46 9.22-4.406 18.704-6.706 27.963-22.816 28.14-48.964l.02-2.935 6.56.288c10.76.471 16.917-2.743 19.363-10.106 1.223-3.68 1.764-4.176 5.117-4.686 4.754-.723 5.439-.185 5.453 4.289.007 2.159.436 7.67.953 12.245.518 4.576.953 11.488.968 15.36.057 15.459 1.347 20.295 6.94 26.01 5.659 5.784 11.403 6.068 16.768.83l2.436-2.379 3.373 2.423c13.746 9.876 47.508 12.023 55.198 3.51 3.755-4.155 2.732-16.776-1.607-19.841-.771-.545.729-10.834 2.425-16.633 1.275-4.36 1.689-7.634 2.085-16.503.492-11.041.497-11.067 2.35-13.033 2.818-2.989 10.498-5.814 10.498-3.863 0 .287 1.253 2.388 2.783 4.67 2.29 3.413 2.863 4.882 3.234 8.28 1.106 10.119 3.228 14.137 8.863 16.784 4.367 2.052 4.474 2.576 1.844 9.062-1.786 4.407-1.832 4.454-6.541 6.82-6.433 3.232-6.548 3.364-6.033 6.905.463 3.187 1.553 5.253 3.934 7.46.828.768 2.407 3.669 3.508 6.447 3.173 8.005 4.263 8.806 12.391 9.107 8.818.327 13.63-.871 24.423-6.08 12.987-6.267 16.42-5.825 12.272 1.579-7.376 13.168-7.641 17.225-2.999 45.885 1.64 10.12 1.85 24.625.725 49.92-.423 9.504-.926 23.76-1.118 31.68-.537 22.134-1.496 32.123-3.207 33.414-2.099 1.583-2.769.65-4.727-6.585-2.697-9.962-5.709-15.384-11.724-21.107-3.785-3.601-3.785-3.579.152-6.694 4.79-3.79 8.616-9.048 9.575-13.155.445-1.91 1.196-4.926 1.668-6.702 1.297-4.884 3-24.343 2.545-29.09-1.255-13.11-2.364-15.477-6.029-12.874-.934.664-2.779 1.657-4.098 2.207-3.709 1.547-6.626 4.058-9.915 8.539l-3.014 4.103-3.536-.428c-4.585-1.225-9.434-1.525-13.187-1.32l-7.159.41-1.726-2.263c-2.881-3.778-9.247-6.948-14.983-7.461-5.359-.48-7.688 25.853-3.21 36.298 4.24 9.89 12.878 18.868 18.157 18.868 5.644 0 5.39 4.527-.565 10.07-1.942 1.414-3.237 3.512-4.465 5.24-2.29 2.624-8.067 18.481-8.074 22.162-.007 3.633-2.072 4.454-4.315 1.716zm152.797-12.376l.005-6.012 3.885-3.098c7.53-6.005 16.598-8.155 21.899-5.192l3.005 1.68v4.147c0 7.76-2.357 9.88-14.4 12.953-1.408.359-5.224.85-8.48 1.093l-5.92.441.005-6.012zM403.51 438.754c.015-5.785 10.591-8.344 12.059-2.918.69 2.55.715 2.53-1.886 1.444-2.622-1.096-7.013-.49-8.914 1.231-.968.876-1.261.932-1.26.243zm25.6-.464c.031-5.722 11.015-8.109 13.866-3.014 1.755 3.137 1.881 3.046-2.606 1.874-2.942-.768-4.144-.818-5.733-.237-3.737 1.367-5.53 1.814-5.527 1.377zm-93.924-138.196c.089-5.544-.089-12.42-.394-15.28l-.556-5.202 4.216-.734c3.992-.695 8.773-1.863 17.3-4.225 9.609-2.662 12.39 1.86 10.272 16.696-.55 3.842-1.143 9.29-1.32 12.105-.176 2.816-.437 5.48-.579 5.92-.196.61-3.706.8-14.679.8h-14.42zm96.481 7.853c0-.169.429-1.393.952-2.72.523-1.327 1.191-6.065 1.485-10.528.698-10.637.435-10.355 9.31-9.99l6.981.288 1.293-2.922c1.971-4.456.134-8.621-8.129-18.427-1.497-1.776-5.3-3.817-8.715-4.676l-5.257-1.322c-6.213-1.564-20.018-.905-27.68 1.322-11.01 3.2-11.751 3.373-12.75 2.99-3.83-1.47-1.429-6.823 3.069-6.839 13.714-.046 27.701-8.886 33.401-21.109.903-1.936 1.907-4.013 2.232-4.616 1.413-2.627 2.045-10.72 1.647-21.092-.366-9.526-.901-13.985-3.02-25.172-1.79-9.453-1.475-10.56 3.011-10.56 1.984 0 2.123.173 3.485 4.32 3.362 10.232 8.374 12.514 21.68 9.868 15.137-3.01 15.279-3.026 14.046-1.605a78.951 78.951 0 00-2.028 2.457c-.553.704-2.463 3.008-4.243 5.12-1.781 2.112-3.24 4.1-3.244 4.419-.003.318-.765 2.184-1.694 4.146-5.186 10.962.731 28.444 11.422 33.748 12.629 6.266 19.82 7.266 30.764 4.278 4.532-1.237 4.433-1.339 3.588 3.692-1.625 9.661-10.78 21.523-24.51 31.757-7.75 5.777-12.404 10.472-16.696 16.842-4.495 6.671-6.894 8.813-13.12 11.71-6.532 3.04-17.28 5.915-17.28 4.621zM302.184 265.54c-3.337-.208-9.222-2.787-10.676-4.678-1.533-1.994-11.098-1.95-13.76.065-.352.266-2.273.686-4.27.933l-3.631.45-.403-3.108c-2.636-20.316-3.874-22.957-11.508-24.542-5.794-1.203-5.869-4.85-.2-9.708 11.38-9.753 13.32-13.543 14.274-27.898.508-7.64.108-7.407 7.428-4.32 9.154 3.861 12.14 3.348 19.223-3.307 3.91-3.673 6.67-4.377 10.433-2.663 2.753 1.255 2.669 2.863-.883 16.85-1.404 5.53-6.126 12.823-13.61 21.02-1.719 1.883-5.653 10.419-5.653 12.266 0 4.782 5.934 7.876 12.86 6.705 11.821-1.997 20.398-5.199 21.48-8.018.196-.513.635-.933.974-.933 1.491 0 6.871-5.448 8.845-8.958 2.565-4.56 3.218-4.69 5.774-1.162 5.745 7.93 12.243 12.68 18.664 13.643 3.018.453 16.752-3.546 20.005-5.824 1.42-.995 9.072-1.238 10.499-.334.707.449.667.92-.23 2.654-1.837 3.552-3.624 4.906-7.856 5.953-4.676 1.157-8.669 3.387-8.024 4.483 1.029 1.748 3.803 5.283 4.688 5.973 1.817 1.416-.027 1.7-11.675 1.793-11.596.093-23.13 2.44-24.057 4.895-.117.31-.537.564-.932.564s-2.94 1.043-5.656 2.318l-4.938 2.317-3.044-1.037c-5.874-2.002-10.794-1.452-13.623 1.522-2 2.102-2.826 2.539-4.615 2.44-1.198-.067-3.855-.226-5.903-.354zm88.192-48.406c-.697-.488-1.493-.902-1.768-.919-4.757-2.038-7.794-2.374-11.603-3.602-2.761-.901-5.56-1.639-6.218-1.639-.838 0-1.199-.461-1.199-1.531 0-1.62 1.054-2.309 3.535-2.309 2.13-1.799 2.871-1.248 4.305-1.527 2.227-.418 5.6-3.102 5.6-4.456 0-3.05 1.603-3.264 6.01-.8l4.27 2.388-.18 7.426c-.186 7.677-.523 8.53-2.752 6.97zm-41.268-8.685c-3.826-.202-6.716-.63-6.71-.995.004-.352.634-2.512 1.4-4.8.765-2.288 1.883-7.256 2.484-11.04 1.252-7.873 2.254-8.775 4.971-4.47.837 1.325 1.998 2.805 2.582 3.29.8.663 1.024 1.786.914 4.571-.214 5.42 3.019 10.21 6.891 10.21.583 0 .908.688.908 1.92 0 2.178 1.023 2.078-13.44 1.314zm35.23-18.435c-2.264-6.27-6.885-9.78-13.23-10.047l-3.09-.13-2.051-4.744c-4.188-9.691-8.136-10.072-12.856-1.239-2.627 4.916-4.909 5.299-5.509.923-1.118-8.158-14.447-18.843-23.506-18.843-6.749 0-11.696 6.493-11.377 14.93l.197 5.19-2.405.569c-3.667.867-5.69-.261-7.005-3.907-2.036-5.648-3.192-6.865-9.553-10.063-4.121-2.89-6.985-2.924-11.725-2.58-3.168.23-7.344.556-9.28.725l-3.52.306-2.4-3.65c-3.573-5.786-5.824-9.142-8.31-11.994-2.278-2.611-2.224-2.93.878-5.206 13.899-10.195 13.147-28.183-1.475-35.262-5.172-2.504-7.613-3.458-8.85-3.458-.68 0-2.722-.586-4.54-1.302-7.503-2.958-27.794-1.907-36.103 1.87-9.222 4.191-16.386 5.529-19.455 3.632-.556-.343 5.108-6.108 15.935-16.22 12.83-10.446 24.401-18.665 35.8-29.31 20.606-18.226 34.75-26.809 54.658-40.11 7.005-5.246 14.409-7.875 21.258-13.31 1.258-1.043 1.83-.404.976 1.088-9.301 16.246-8.043 31.511 3.6 43.681 2.19 2.29 3.914 4.23 3.832 4.311-.385.385-6.385 2.79-6.96 2.79-.358 0-1.558.42-2.667.933-2.216 1.024-23.593 7.38-24.889 7.4-2.564.942-4.296 2.203-6.683 3.703l.24 5.342c.433 9.646 4.93 18.423 11.33 22.12 3.81 2.201 16.778-.446 26.567-5.423 5.067-2.576 4.9-2.883 2.366 4.352-1.99 5.684-2.417 6.346-6.991 10.853-6.723 6.625-8.605 13.844-5.302 20.342 4.714 7.108 9.404 10.926 16.126 14.216 2.07 2.07 17.037.93 25.22-1.92 1.969-.646 3.813-.996 5.834-1.396l-.395 6.198-3.234.326c-5.67.572-12.384 5.571-13.34 9.932-.603 2.75 2.664 6.86 7.224 9.092l3.45 1.689 7.75-1.56c8.922-1.794 25.86-2.267 27.362-.764 2.215 2.218 3.184 6.896 3.557 17.187l.374 10.301-2.491.412c-4.091.676-4.43.55-5.341-1.975zm40.772-25.547c-1.272-.215-1.864-.772-2.14-2.015-.89-3.995-3.37-9.747-4.743-10.998-2.488-4.506-6.272-7.073-11.005-8.762-2.148-1.928-20.01-1.653-30.717.474-7.032 1.396-11.74-7.602-5.616-10.734 9.7-4.96 12.51-5.57 15.71-3.41 7.465 5.038 16.893 3.764 24.72-3.34 4.485-4.072 4.794-12.699.776-21.668-1.203-2.684-2.187-5.094-2.187-5.356 0-.498-2.14-3.177-6.394-8.004-8.422-9.555-9.503-10.24-16.164-10.24-13.203 0-20.357 9.198-16.18 20.8 1.26 3.5 1.203 4.095-.462 4.815-.792.342-1.872.905-2.4 1.25-8.135 5.32-20.902 5.896-22.13 1-.98-3.904 11.059-32.024 14.241-33.266 3.715-1.45 19.84-7.477 24.07-8.996 5.44-1.954 7.454-3.842 9.932-9.308l1.317-2.905 5.478-.792c3.013-.436 5.864-.94 6.337-1.122.796-.306 6.39 3.913 20.31 15.318 19.94 14.109 37.868 26.677 55.739 41.548 8.466 6.753 15.31 14.94 22.567 22.858 6.869 7.469 16.978 20.248 16.327 20.64-3.907 2.35-7.172 2.383-10.526.106-1.755-1.19-2.9-1.54-4.09-1.25-4.565 1.112-6.593 1.635-11.892 3.07-12.31 3.33-22.556 4.462-47.101 5.202-6.518.196-10.08 1.179-11.54 3.184-.794 1.088-9.26 2.403-12.237 1.9zM342.708 51.286c0-.181.275-.829.61-1.44 6.424-11.706 7.425-16.582 4.888-23.81-2.1-5.988-8.547-16.523-14.29-23.357-1.98-2.356-1.047-2.82 2.608-1.3 16.854 6.345 27.54 14.758 28.203 15.142 1.289.68 10.46 7.504 21.795 16.216 7.34 5.64 13.834 12.728 12.4 13.531-1.644.921-4.558.57-6.204-.746l-4.72-3.774c-2.02-1.613-3.964-2.934-4.32-2.934a.646.646 0 01-.65-.64c-4.014-1.366-9.105.34-12.8 2.294-3.444 1.865-13.878 6.568-16 7.212-3.827 1.162-8.965 3.086-9.399 3.52-.491.492-2.12.557-2.12.086z" fill="#aacf53"/></svg>