<svg xmlns="http://www.w3.org/2000/svg" width="376.028" height="497.465" viewBox="0 0 99.491 131.621"><g fill-opacity=".6"><path style="mix-blend-mode:normal" d="M82.621 88.788c3.78 36.75-22.553 42.333-43.845 42.333-21.293 0-32.506-14.655-32.506-35.53S31.846 58.55 53.139 58.55c21.292 0 27.346 9.472 29.482 30.238z" fill="#aacf53"/><path style="mix-blend-mode:normal" d="M36.314 61.854c0 10.333-6.358 20.312-16.838 20.312S.5 68.98.5 58.646c0-10.332 8.676-10.893 18.976-12.828 14.222-2.673 16.838 5.703 16.838 16.036z" fill="#cca6bf"/><path d="M98.855 27.91c-1.05 14.28-5.803 28.037-25.39 24.857C55 49.769 44.95 44.557 48.074 30.583 52.35 11.454 54.336 4.123 73.464.916 87.587-1.45 100.46 6.11 98.856 27.911z" fill="#abced8"/></g></svg>