<svg xmlns="http://www.w3.org/2000/svg" width="701" height="378.127"><defs><clipPath clipPathUnits="userSpaceOnUse" id="a"><path fill="#00f" fill-rule="evenodd" d="M-23.873 1400.565h1451.175v400.07H-23.873z"/></clipPath></defs><path d="M699.598 169.71c0 50.007 12.292 97.966-53.866 133.326s-205.347 74.58-298.909 74.58c-93.561 0-157.486 1.639-223.644-33.722C57.021 308.534.5 260.575.5 210.568c0-50.007 7.061-140.975 73.22-176.335C139.876-1.127 350.03.512 443.591.512c93.562 0 116.629 22.015 182.786 57.376 66.158 35.36 73.22 61.815 73.22 111.822z" fill="#00000f" fill-opacity=".976"/><path fill="#fff" fill-rule="evenodd" d="M82.242 103.911h525.36V231.64H82.243z"/><path d="M0 900.317V0h1427.302v1800.635H0zm210.794 819.103c3.04-1.92 4.066-10.76 5.079-43.77.698-22.75 2.208-42.815 3.354-44.587 1.147-1.773 7.491-5.963 14.099-9.311 17.304-8.768 22.952-24.058 8.96-24.253-5.886-.082-23.873-15.431-23.873-20.372 0-6.855 4.192-6.369 16.07 1.863 17.55 12.162 37.337 7.783 40.597-8.983 1.803-9.275-4.326-21.33-13.642-26.834-4.227-2.497-8.976-6.606-10.553-9.132-2.408-3.855-5.235-4.377-17.625-3.253-16.798 1.523-21.09-.728-23.398-12.273-2.643-13.213 3.54-23.1 19.492-31.172 22.251-11.258 22.33-12.042 2.685-26.913-9.43-7.138-18.353-12.477-19.83-11.863-73.109 30.38-82.596 35.108-80.037 39.89 3.012 5.628 12.966 11.144 24.65 13.66 8.649 1.863 15.876 9.618 15.876 17.034 0 8.306-10.041 12.278-31.04 12.278-18.22 0-19.753.404-19.753 5.205 0 9.555 7.613 20.086 18.465 25.542 27.884 14.018 26.706 24.14-7.222 62.06-8.802 9.837-15.218 19.095-14.258 20.572 5.815 8.95 20.538 10.675 33.529 3.928 10.953-5.69 17.263-4.534 19.287 3.53.853 3.398 2.283 19.6 3.177 36.004l1.625 29.825 10.159 1.545c15.84 2.408 20.028 2.37 24.127-.22zm531.917-.323c5.506-1.53 13.161-6.152 17.011-10.273l7-7.493 4.006 7.747c4.634 8.963 8.956 9.46 44.577 5.133 49.808-6.051 66.04-10.166 76.154-19.302 5.21-4.708 10.342-8.56 11.404-8.56 1.06 0 14.117 7.429 29.014 16.508 31.476 19.184 37.97 20.27 50.224 8.39 4.607-4.464 8.375-9.597 8.375-11.406 0-1.81-6.385-6.893-14.189-11.297-16.765-9.462-18.796-13.166-11.484-20.948 3.137-3.34 5.158-8.396 4.766-11.926-.52-4.68.673-6.324 5.04-6.95 7.918-1.136 12.095-9.544 8.577-17.266l-2.733-6-102.29-.663-102.29-.664-.756-11.632c-.558-8.579.549-13.245 4.217-17.778l4.973-6.146 97.37-1.373c53.554-.756 97.63-1.613 97.947-1.905.317-.292 2.398-3.312 4.625-6.71 3.15-4.807 3.424-7.345 1.239-11.429-2.78-5.195-4.078-5.25-125.895-5.25-67.697 0-123.096.286-123.109.636-.013.349-3.44 35.492-7.616 78.095-4.175 42.603-7.593 78.317-7.595 79.365-.005 2.736 9.821 2.322 21.438-.903zm25.19-44.182c-3.542-9.23 5.822-26.661 14.321-26.661 10.19 0 17.19 19.89 9.651 27.429-4.467 4.466-22.182 3.9-23.973-.768zm77.178-1.468c-5.836-3.4-6.09-18.938-.346-21.143 4.83-1.853 23.434 7.942 27.417 14.435 2.13 3.471 1.889 5.079-1.039 6.945-4.995 3.185-20.398 3.045-26.032-.237zm-558.83 40.927c6.415-3.911 9.047-8.11 12.333-19.673 2.297-8.086 5.637-16.241 7.422-18.123 4.698-4.956 12.096-.255 21.802 13.853 16.21 23.56 22.34 28.934 33.004 28.934 7.348 0 12.058-1.976 18.784-7.882 4.938-4.335 8.977-8.854 8.977-10.042 0-1.187-12.168-19.07-27.04-39.737s-29.132-42.148-31.69-47.736c-6.866-15-5.87-30.702 5.397-85.08 11.742-56.669 12.159-62.926 4.72-70.911-8.726-9.366-32.656-17.259-32.656-10.77 0 1.997-23.062 110.99-45.763 216.285-5.572 25.841-10.126 48.984-10.12 51.429.014 6.546 23.81 6.172 34.83-.547zm949.487-5.23c20.093-6.913 30.384-17.406 37.237-37.968 5.156-15.469 5.587-22.411 6.463-104.192.517-48.19.214-92.476-.674-98.413l-1.613-10.793h-242.952l-1.813 43.81c-2.83 68.38-.439 152.726 4.79 168.924 7.364 22.821 22.924 36.157 47.95 41.096 5.911 1.167 38.856 2.246 73.209 2.4 56.534.251 63.877-.21 77.403-4.864zm-70.868-34.647c-3.377-3.377-1.58-10.887 3.22-13.456 8.316-4.45 26.028 5.694 21.822 12.499-1.793 2.9-22.315 3.685-25.042.957zm-63.28-2.597c-11.561-3.021 2.036-13.487 17.521-13.487 6.51 0 7.398 2.746 3.341 10.325-2.554 4.773-10.241 5.938-20.863 3.162zm-22.134-38.717c-1.446-2.702-2.629-19.845-2.629-38.095v-33.183h74.921c88.971 0 85.08-1.264 85.08 27.625 0 11.938-1.135 18.408-3.584 20.441-2.45 2.033-4.104 2.132-5.23.311-.904-1.465-4.435-2.663-7.844-2.663-6.022 0-6.2-.546-6.2-19.048v-19.047h-121.904v24.127c0 20.74.712 24.84 5.079 29.206 6.362 6.362 6.4 9.273.167 12.61-7.597 4.065-14.962 3.123-17.856-2.284zm56.292-23.532c-4.666-4.666-3.626-14.242 1.865-17.18 2.702-1.447 10.205-2.63 16.675-2.63 14.628 0 21.587 3.55 21.587 11.01 0 9.14-4.935 11.847-21.587 11.847-8.663 0-16.836-1.343-18.54-3.047zm-51.937-73.346c-4.358-2.54-6.36-17.352-2.822-20.89.893-.893 4.793 1.045 8.668 4.306 5.248 4.416 11.639 6.38 25.045 7.702 12.412 1.223 17.998 2.824 17.998 5.158 0 1.86-1.807 4.077-4.017 4.925-6.529 2.505-40.048 1.608-44.872-1.201zm98.02-1.176c-2.27-5.916-.116-6.796 19.985-8.166 20.433-1.391 24.853-3.533 24.853-12.042 0-8.906-5.003-11.138-26.787-11.948-15.926-.592-20.197-1.556-20.197-4.56 0-2.946 3.984-3.982 17.582-4.57 28.439-1.232 37.02 5.074 37.02 27.199 0 14.811-5.343 18.006-30.12 18.006-16.434 0-21.15-.828-22.336-3.92zm-90.893-33.946c-2.776-4.492 8.034-7.85 25.274-7.85 14.688 0 16.751.573 16.012 4.445-.705 3.691-4.143 4.57-20.29 5.182-10.944.416-20.12-.361-20.996-1.777zM525.37 1678.59c14.635-3.374 31.443-15.206 40.686-28.64 4.109-5.972 13.962-26.797 21.897-46.277 7.934-19.48 16.026-37.084 17.98-39.12 6.696-6.971 9.959.923 9.723 23.524-.26 25-4.643 42.485-11.07 44.166-3.866 1.01-4.265 2.638-2.534 10.314 2.7 11.97 9.849 21.248 19.365 25.131 6.477 2.643 9.047 2.459 16.242-1.163 7.103-3.575 9.962-7.811 16.911-25.062 23.477-58.276 11.482-107.05-31.534-128.226-22.564-11.108-52.647-13.01-79.034-4.995-47.338 14.379-82.998 57.367-86.125 103.823-1.55 23.046 1.794 37.847 11.035 48.83 8.074 9.595 13.846 12.817 30.136 16.821 16.003 3.934 13.42 3.849 26.322.874zm-16.926-53.701c-4.535-4.536-3.586-22.186 1.835-34.126 6.035-13.29 20.196-29.059 31.62-35.211 7.625-4.107 9.403-4.27 13.099-1.202 13.684 11.357-17.343 73.587-36.69 73.587-3.749 0-8.187-1.372-9.864-3.048zm457.515-9.502c7.146-2.717 8.413-7.514 4.11-15.554-2.523-4.715-6.248-4.912-92.698-4.912h-90.07v5.863c0 6.608 3.929 12.392 11.43 16.825 6.299 3.724 156.85 1.723 167.228-2.222zm-594.158-49.4c11.27-4.708 15.59-16.23 10.58-28.222-4.22-10.097-10.568-13.955-22.964-13.955-25.44 0-29.645 35.69-5.07 43.022 4.157 1.24 7.88 2.353 8.274 2.474.394.12 4.525-1.373 9.18-3.318zm575.143-17.57c25.497-6.913 31.938-21.012 28.937-63.338l-1.396-19.682h-60.459l-8.514-9.295c-7.405-8.082-10.345-9.446-22.545-10.458l-14.03-1.163-.817 8.507c-.644 6.696-2.342 9.04-7.975 11.01-6.515 2.276-7.898 1.619-15.407-7.326-7.433-8.853-9.682-9.946-22.685-11.025-13.707-1.136-14.434-.903-14.434 4.632 0 3.206-1.891 7.919-4.203 10.473-3.624 4.005-8.374 4.645-34.493 4.645h-30.29l.842 31.587c.82 30.716 1.041 31.794 8.044 39.096 13.818 14.409 41.959 18.231 124.862 16.962 42.765-.655 65.013-2.035 74.563-4.624zm-159.87-21.073c-2.88-3.47-2.663-4.616 1.444-7.619 5.783-4.228 7.746-4.354 14.189-.905 9.212 4.93 4.533 12.609-7.683 12.609-2.508 0-6.086-1.838-7.95-4.085zm59.418-.092c-1.614-4.206 4.987-11.061 10.65-11.061 1.562 0 4.958 1.549 7.547 3.442 7.334 5.363 3.218 11.796-7.546 11.796-6.054 0-9.579-1.382-10.651-4.177zm63.35 2.495c-5.61-2.263-3.592-10.815 2.937-12.454 6.377-1.6 16.745 2.435 16.745 6.517 0 5.201-12.306 8.913-19.683 5.937zm-123.861-36.495c-2.897-4.688 2.563-7.97 11.791-7.087 12.152 1.161 11.61 8.186-.71 9.213-5.109.426-10.095-.531-11.081-2.126zm60.553-1.444c-3.013-7.853 13.499-12.052 19.405-4.935 4.525 5.452.967 9-9.026 9-5.743 0-9.363-1.418-10.379-4.065zm61.826 2.372c-4.384-4.383-1.207-8.463 6.56-8.426 9.8.046 15.94 3.362 13.51 7.296-1.883 3.045-17.288 3.913-20.07 1.13zm-215.716-171.699l13.278-12.993 5.788 5.437c3.183 2.99 14.883 9.582 26 14.649 18.447 8.406 21.505 9.06 35.018 7.492 14.247-1.653 15.197-2.236 25.154-15.424 5.69-7.538 11.398-13.705 12.683-13.705 1.285 0 6.816 2.286 12.292 5.08 5.476 2.793 14.515 5.079 20.087 5.079 8.486 0 11.12-1.34 16.226-8.254 11.683-15.82 14.484-27.655 14.437-61.004-.03-22.167-1.401-36.15-4.786-48.838-14.87-55.745-45.547-94.537-81.037-102.476-10.33-2.311-11.08-2.095-13.333 3.83-3.708 9.753-2.902 18.71 3.997 44.397 15.097 56.212 16.691 63.998 15.958 77.966l-.755 14.379-4.699-10.16c-7.799-16.863-28.858-80.23-32.072-96.507-7.706-39.03-17.79-59.613-34.166-69.733-5.132-3.172-9.919-5.179-10.638-4.46-.72.72-2.896 22.279-4.837 47.91-4.272 56.396-5.57 68.62-10.08 94.854-1.92 11.175-4.251 28.238-5.18 37.918-2.654 27.68-4.532 29.91-9.994 11.87-4.234-13.984-4.527-21.398-2.988-75.818.937-33.175 2.924-72.703 4.415-87.84 1.491-15.136 2.156-28.075 1.477-28.754-1.963-1.963-20.9 10.86-26.44 17.904-5.538 7.04-16.101 45.289-29.009 105.038-4.601 21.301-9.113 38.73-10.025 38.73-4.623 0-7.015-38.272-4.399-70.361 4.354-53.38.094-61.89-20.392-40.75-33.351 34.415-66.541 100.835-72.112 144.31-2.43 18.97-2.227 23.177 1.58 32.693 5.57 13.92 19.165 34.77 22.892 35.106 1.571.142 7.671 1.604 13.555 3.248 9.913 2.77 11.946 2.405 27.74-4.986l17.044-7.976 8.068 7.82c4.438 4.3 14.811 10.643 23.053 14.094 12.238 5.123 17.545 5.994 28.953 4.75 12.5-1.362 15.364-2.888 27.247-14.515zm305.805-38.991c2.494-2.257 5.809-7.966 7.367-12.686 3.26-9.879 6.701-10.523 24.303-4.547 11.624 3.947 12.24 3.883 28.204-2.9 8.976-3.816 17.95-9.425 19.941-12.465 1.993-3.04 4.36-12.592 5.263-21.226 1.569-15.007 1.946-15.697 8.58-15.697 16.056 0 23.123-3.13 29.356-13.004 8.436-13.364 8.214-30.084-.677-50.956-8.484-19.917-11.448-23.795-53.799-70.395-13.154-14.475-44.107-39.014-58.271-46.198-17.233-8.741-26.677-9.244-37.13-1.979-7.637 5.308-24.284 24.014-24.284 27.288 0 .916 9.423 6.793 20.941 13.058 28.686 15.605 59.082 45.602 70.095 69.177 4.406 9.432 8.011 18.874 8.011 20.981 0 5.168-24.207-14.383-46.984-37.947-17.616-18.224-38.433-33.709-41.369-30.773-4.83 4.83 39.759 75.342 65.515 103.605 8.593 9.428 15.06 17.143 14.372 17.143-.69 0-8.664-4.286-17.722-9.524-32.34-18.701-49.9-37.583-72.65-78.119l-12.816-22.833-.046 15.368c-.027 9.025 2.553 24.225 6.25 36.825 3.463 11.802 6.32 22.539 6.35 23.86.028 1.322-3.798-1.329-8.504-5.89-10.696-10.367-21.232-36.65-25.582-63.814-1.804-11.268-3.83-21.037-4.5-21.708-2.205-2.204-14.71 9.292-18.881 17.357-8.964 17.334 3.658 75.053 26.179 119.713 7.801 15.471 16.58 31.558 19.506 35.749 8.327 11.921 24.019 26.198 30.274 27.543 9.711 2.088 27.954-.704 32.708-5.006zm-566.407-23.966c9.26-4.955 30.253-31.39 43.556-54.847 17.404-30.686 34.985-55.72 53.227-75.788 13.953-15.35 41.1-51.909 39.601-53.33-.444-.42-9.753.12-20.687 1.203-28.752 2.846-56.98 17.553-84.879 44.223-11.525 11.018-20.942 19.018-20.925 17.778.07-5.263 7.139-28.342 11.191-36.54 2.417-4.89 13.167-17.13 23.888-27.201l19.494-18.312-14.452-.101c-24.834-.173-50.34 10.835-86.813 37.468-11.771 8.596-12.284 8.736-10.495 2.877 7.286-23.858 17.043-33.99 48.903-50.778 11.524-6.072 20.952-11.892 20.952-12.933 0-2.426-15.768-6.978-30.476-8.796-20.403-2.523-71.095 19.675-103.47 45.31-19.148 15.16-47.303 45.535-52.646 56.795-9.775 20.6 2.141 36.623 27.236 36.623h8.426l-.09 21.12c-.099 22.957 1.155 25.59 15.78 33.154 10.922 5.648 26.703 5.196 39.08-1.118 5.667-2.89 10.799-4.761 11.404-4.156.605.605 2.15 7.551 3.433 15.436 2.866 17.605 7.134 23.977 21.026 31.386 8.48 4.523 13.206 5.425 22.202 4.235 6.286-.83 13.276-2.5 15.534-3.708zm825.076-157.288c6.473-3.464 10.184-15.986 10.184-34.365v-15.816l12.521-5.387c6.887-2.963 14.943-8.787 17.902-12.943 4.976-6.987 5.163-8.756 2.484-23.497l-2.897-15.942 9.977-8.889c12.392-11.04 15.886-17.445 15.886-29.124 0-10.32-9.602-30.936-19.673-42.239-14.613-16.4-55.253-35.36-92.082-42.96-17.085-3.524-34.373-4.985-59.283-5.008-51.806-.05-69.765 6.622-73.657 27.364-2.173 11.585 1.887 12.502 32.516 7.341 37.085-6.248 52.736-5.59 80.14 3.365 12.838 4.195 26.489 9.868 30.335 12.607 7.551 5.377 21.622 22.599 19.884 24.337-.585.584-10.13-2.737-21.21-7.38-34.206-14.337-50.73-17.705-80.394-16.385-14.433.642-28.376 2.361-30.985 3.821-4.1 2.294-2.968 3.245 8.324 6.995 7.188 2.388 13.069 5.233 13.069 6.324 0 1.09 5.388 4.713 11.975 8.05 12.235 6.199 20.805 13.994 20.956 19.06.102 3.412-38.22-6.115-56.783-14.116-6.832-2.945-12.944-4.833-13.581-4.196-1.677 1.678 24.815 34.002 37.799 46.12 6.084 5.68 18.35 16.489 27.255 24.021 8.906 7.532 14.911 14.122 13.345 14.644-6.208 2.07-29.959-8.439-51.223-22.662-23.368-15.631-39.08-31.343-50.073-50.075-5.641-9.613-6.81-10.466-8.995-6.562-6.67 11.916-6.61 21.82.217 36.359 14.335 30.532 46.268 69.382 73.013 88.829 10.428 7.582 63.082 29.45 76.228 31.659 10.565 1.775 41.368-.429 46.826-3.35zM240 1073.736c33.687-11.05 101.52-64.042 119.169-93.095 7.226-11.897 8.757-16.567 7.495-22.874-.871-4.36-2.476-7.926-3.565-7.926-1.09 0-14.335 10.794-29.434 23.986-28.22 24.656-56.993 43.22-71.478 46.117-11.239 2.247-10.43-1.633 2.575-12.369 20.633-17.032 57.778-56.826 57.778-61.898 0-2.382-20.734 1.798-48.254 9.727-14.667 4.227-30.488 8.787-35.16 10.135-4.67 1.348-9.192 1.749-10.05.892-.857-.857 6.106-8.61 15.472-17.227 12.152-11.179 22.67-18.065 36.718-24.035l19.686-8.367-62.222 1.428-62.222 1.427 8.889-7.95c14.15-12.656 19.537-14.437 57.152-18.9 58.212-6.908 67.999-8.616 71.939-12.556 3.315-3.315 3.278-4.485-.314-9.967-12.77-19.491-80.604-27.459-129.814-15.247-28.76 7.136-53.915 22.2-78.3 46.888-16.213 16.415-22.25 24.277-22.25 28.974 0 9.935 9.624 26.508 18.126 31.215 15.289 8.464 15.114 8.116 10.703 21.342-2.498 7.492-3.387 15.356-2.356 20.851 2.223 11.851 19.41 28.546 32.994 32.05 5.705 1.471 12.212 3.204 14.458 3.851 2.247.647 6.028 5.436 8.403 10.642 13.406 29.39 34.3 35.864 73.862 22.886zm641.18-29.09c28.779-11.101 44.478-24.37 55.917-47.26 10.278-20.569 10.094-22.446-1.859-18.964-5.238 1.527-23.238 2.852-40 2.946l-30.476.172-15.695-9.518c-15.039-9.119-16.012-10.34-23.258-29.182-4.16-10.816-8.971-27.094-10.692-36.173-1.721-9.08-3.972-18.115-5.001-20.08-4.544-8.665-40.592 54.513-40.592 71.142 0 20.97 17.287 62.274 32.49 77.63 11.732 11.85 35.312 21.651 47.51 19.747 4.19-.654 18.436-5.361 31.656-10.46zm-247.67-36.344c21.564-7.419 30.502-13.641 58.197-40.513 40.517-39.313 63.873-73.205 98.704-143.228 15.904-31.972 46.065-105.633 57.891-141.386 15.89-48.038 30.094-85.696 36.4-96.508 13.158-22.56 6.674-51.743-13.854-62.359-4.255-2.2-15.451-4.647-24.88-5.438-16.466-1.38-17.36-1.16-22.666 5.586-4.948 6.29-5.527 10.097-5.548 36.521-.035 42.97-6.857 74.124-34.545 157.753-11.829 35.727-16.9 47.374-48.093 110.476-27.492 55.614-39.964 75.186-64.403 101.06-20.605 21.816-55.702 34.813-94.004 34.813-43.252 0-93.674-19.996-124.204-49.257-26.021-24.94-54.705-72.504-67.924-112.632-8.95-27.17-11.15-73.57-5.03-106.047 15.903-84.38 40.111-139.553 83.192-189.609 16.638-19.33 49.812-45.303 69.32-54.27 49.674-22.835 103.062-38.745 137.326-40.925 33.086-2.104 59.418 1.818 98.49 14.672 55.768 18.346 102.203 43.747 132.712 72.596 13.127 13.532 16.91 18.115 29.458 37.226 29.71 36.088 54.343 83.303 60.678 116.305 7.218 37.608 1.542 116.159-11.899 164.64-10.037 36.204-31.757 77.323-60.705 114.92l-9.288 12.064 7.17.324c3.943.178 10.004.606 13.469.951 15.353 1.528 54.999-13.018 68.265-25.047 13.28-12.042 33.833-49.277 39.773-72.058 6.048-23.195 13.884-88.48 13.9-115.82.019-26.716-5.461-77.99-11.442-107.08-10.506-51.105-26.07-86.572-54.727-124.712-18.008-23.968-49.494-55.277-67.148-66.77-8.427-8.04-19.795-12.128-28.925-17.5-21.954-13.27-77.358-32.318-129.805-44.628-26.565-6.235-74.233-9.984-110.145-8.662-82.719 3.046-169.74 41.166-222.195 97.335-43.86 46.964-78.35 117.986-97.363 200.492-7.922 34.376-8.35 113.46-.777 143.48 10.237 40.577 34.848 79.724 75.983 120.859 29.813 29.813 55.606 48.911 83.818 62.063 31.606 14.733 32.863 15.16 59.885 20.287 33.705 6.396 66.395 6.407 84.939.026zm-13.742-91.22c16.988-14.564 18.45-22.774 18.454-103.677.002-36.706.689-66.69 1.526-66.63.837.06 6.955 8.039 13.596 17.731 18.016 26.297 35.733 33.748 56.646 23.825 12.682-6.019 12.826-12.575.67-30.561-7.474-11.06-13.717-17.119-21.574-20.936-13.442-6.53-42.9-29.334-45.015-34.846-.842-2.195-1.531-11.762-1.531-21.26V663.46l10.793-2.67c5.937-1.469 19.08-3.466 29.207-4.44l18.412-1.768-.056-11.736c-.036-7.455-1.772-13.966-4.76-17.853-4.555-5.925-5.463-6.069-28.685-4.543-13.19.866-25.822 2.281-28.07 3.144-3.096 1.188-3.778.377-2.807-3.337 1.685-6.443-3.278-24.59-7.737-28.29-2.238-1.858-7.474-2.277-14.465-1.16-14.196 2.27-23.078 11.94-29.032 31.603-2.506 8.278-5.314 15.05-6.239 15.05-.925 0-12.458 2.43-25.63 5.398-13.17 2.969-36.369 6.155-51.551 7.08-24.267 1.48-28.152 2.36-32.138 7.282-4.131 5.102-4.216 6.657-.953 17.498 3.697 12.284 9.009 19.819 16.98 24.085 6.358 3.403 27.398-1.291 61.057-13.622 15.125-5.54 27.94-9.633 28.48-9.095 1.026 1.027-15.772 27.314-31.307 48.993-5.005 6.984-16.106 20.127-24.67 29.207-8.562 9.08-20.212 22.793-25.887 30.476-5.676 7.682-13.317 16.739-16.98 20.125-3.663 3.386-6.66 7.532-6.66 9.212 0 5.64 23.418 1.038 41.904-8.235 17.985-9.022 63.405-40.014 69.624-47.506 7.683-9.258 7.5-5.085-2.374 53.917-3.719 22.22-9.545 38.625-16.387 46.138-3.18 3.492-8.948 11.226-12.816 17.186l-7.033 10.837 4.618 10.24c5.442 12.07 18.772 24.531 28.542 26.684 3.815.84 8.08 1.91 9.477 2.376 1.397.466 7.111.93 12.698 1.031 8.277.15 12.292-1.644 21.673-9.686zm698.327-81.396c26.025-8.024 27.049-8.63 42.525-25.129 17.816-18.994 19.602-26.167 11.166-44.843l-4.59-10.158 9.832-11.707c7.332-8.73 10.37-15.105 11.944-25.07 2.091-13.225 1.999-13.501-9.028-27.04l-11.141-13.678 5.56-10.776c6.821-13.219 7.357-31.034 1.215-40.39-2.961-4.512-11.35-9.575-25.245-15.239l-20.81-8.481-50.793.121c-53.734.129-57.253.698-86.349 13.954-8.381 3.818-24.821 11.114-36.534 16.213-26.46 11.519-46.72 28.254-52.488 43.359-2.32 6.073-3.39 12.382-2.377 14.02 2.765 4.474 15.304 1.67 38.066-8.512 32.35-14.471 69.917-27.135 85.351-28.77 18.153-1.924 45.213 2.755 57.351 9.917 9.278 5.474 9.328 5.587 3.202 7.296-3.422.955-14.793 1.864-25.27 2.02-10.476.156-24.915 1.845-32.086 3.755-11.64 3.1-67.563 29.592-72.864 34.518-2.012 1.87 19.399 5.474 54.157 9.115 28.154 2.949 28.467 4.609 2.26 11.986-13.116 3.691-31.533 7.476-40.927 8.41-9.394.935-16.456 2.708-15.694 3.942 3.822 6.184 76.007 35.164 87.588 35.164 2.677 0 4.868.993 4.868 2.207 0 3.202-16.06 5.364-39.365 5.3-17.093-.048-23.945-1.468-43.174-8.948-32.637-12.695-54.33-20.013-55.502-18.722-.556.613-1.818 3.742-2.806 6.953-1.51 4.908.978 8.55 15.614 22.857 50.973 49.828 126.92 67.759 196.344 46.356zm-1163.989-6.57c20.643-5.061 46.113-9.457 59.683-10.302 29.305-1.825 50.703-10.861 63.258-26.713 7.228-9.125 15.826-27.636 13.798-29.706-.42-.428-5.746 1.519-11.836 4.326-46.41 21.397-89.565 27.786-115.183 17.054-7.377-3.09-6.922-3.318 15.238-7.656 36.194-7.084 73.36-16.822 76.701-20.097 2.366-2.319-3.44-3.09-25.396-3.37-15.656-.2-31.893-1.461-36.083-2.801l-7.62-2.437 10.16-2.925c5.587-1.61 21.015-4.143 34.285-5.63 33.183-3.718 33.968-4.226 17.955-11.605-19.607-9.035-32.14-13.001-54.761-17.33-10.896-2.084-20.32-4.299-20.942-4.92-.621-.622 4.271-1.94 10.873-2.93 17.16-2.574 59.978.832 83.474 6.64 11.05 2.732 20.48 4.578 20.954 4.103 2.63-2.63-4.61-26.122-10.806-35.064-12.36-17.837-14.307-18.42-50.604-15.188-50.354 4.485-68.433 3.755-92.838-3.746-49.426-15.191-44.992-14.749-63.305-6.318-2.095.965-7.044 7.975-10.997 15.579-6.429 12.366-7.057 15.701-5.95 31.603L55.4 717.46l-11.498 10.671c-9.992 9.273-11.27 11.602-9.75 17.778.961 3.909 3.244 9.424 5.074 12.257 3.011 4.662 21.793 15.266 37.862 21.375 5.846 2.222 6.092 3.032 3.744 12.286-2.42 9.535-.078 25.189 4.882 32.613 4.412 6.606 22.27 16.438 27.238 14.996 2.829-.821 21.348-5.466 41.154-10.32zm747.157-94.191c4.71-1.923 10.32-3.496 12.467-3.496 8.269 0 30.36-19.88 37.083-33.372 13.783-27.659 5.847-61.85-16.76-72.206-8.933-4.092-9.818-4.083-16.508.17-16.383 10.413-18.495 13.867-18.528 30.295-.023 11.563-1.547 18.082-6.083 26.015-3.33 5.821-7.459 14.964-9.177 20.317-1.719 5.353-6.41 15.803-10.425 23.223-4.015 7.419-7.3 13.823-7.3 14.23 0 1.967 27.702-2.103 35.23-5.176zm-147.48-42.477c10.46-5.805 20.797-24.43 20.81-37.49.012-12.483-3.66-19.376-23.78-44.651-9.538-11.983-27.87-23.62-31.497-19.994-.725.726.67 6.53 3.102 12.896 3.77 9.874 4.011 13.928 1.636 27.566-3.947 22.67-3.478 39.105 1.515 53.035 4.068 11.35 4.857 12.058 13.345 11.973 4.963-.05 11.654-1.55 14.87-3.335zm-522.066-73.907c34.029-6.067 51.523-13.152 61.628-24.957 7.394-8.638 8.376-11.047 5.624-13.799-4.407-4.406-41.934-10.888-63.067-10.893-32.195-.007-55.063-7.171-73.362-22.985l-8.89-7.682 15.239 1.64c8.38.901 25.778 3.715 38.66 6.252 16.507 3.251 29.147 4.18 42.812 3.147l19.39-1.467-41.563-20.78c-41.819-20.909-63.109-33.04-63.109-35.96 0-.867 11.143-.955 24.762-.194 20.375 1.138 28.668 2.955 46.81 10.258 12.127 4.881 25.84 9.708 30.476 10.725l8.429 1.85-10.42-11.306c-5.731-6.22-14.724-18.086-19.984-26.372-5.26-8.286-13.224-19.637-17.696-25.224-11.581-14.467-12.76-16.824-7.267-14.531 11.183 4.668 35.524 18.25 40.376 22.53 2.93 2.584 11.386 12.128 18.79 21.207 18.571 22.772 33.504 38.095 37.125 38.095 1.673 0 6.67-5.428 11.106-12.063 12.18-18.22 10.257-27.941-10.25-51.806-8.824-10.269-19.885-22.413-24.579-26.987-4.694-4.575-7.846-9.432-7.004-10.794.842-1.362.186-2.477-1.458-2.477s-6.798-3.344-11.453-7.43c-15.076-13.238-43.607-28.46-62.576-33.387-31.143-8.088-75.273-4.958-81.002 5.746-2.246 4.199-.388 16.192 4.473 28.858.947 2.468-2.157 5.15-9.7 8.383-16.887 7.239-18.737 10.571-15.041 27.087 3.508 15.679 2.448 18.997-6.073 18.997-6.805 0-26.733 22.873-26.733 30.683 0 12.475 6.216 31.387 12.77 38.85 7.004 7.979 7.125 8.617 4.908 25.832-1.25 9.708-2.31 18.223-2.354 18.92-.158 2.471 16.536 19.445 24.687 25.102 4.545 3.155 11.974 6.898 16.508 8.32 41.259 12.931 63.79 14.891 99.008 8.612zM527.94 579c8.908-4.214 21.48-8.954 27.937-10.534 6.458-1.58 18.027-5.981 25.71-9.782 7.682-3.8 17.968-8.428 22.856-10.284 15.17-5.76 21.607-10.644 49.581-37.623 29.2-28.161 28.455-26.482 20.817-46.956-2.938-7.877-5.984-10.831-15.339-14.88l-11.672-5.053-11.573 5.602c-6.365 3.081-22.698 15.863-36.296 28.404-28.886 26.64-73.91 59.955-114.248 84.535-15.714 9.576-28.571 18.295-28.571 19.377 0 2.912 8.898 4.128 33.016 4.512 19.14.305 23.422-.525 37.782-7.318zm665.621-8.823c11.825-2.081 27.253-5.684 34.286-8.007 27.33-9.027 57.18-33.284 74.554-60.584 9.397-14.766 8.984-31.067-1.108-43.755-9.024-11.343-26.661-21.007-38.34-21.007h-8.35V420.41c0-14.898-6.68-39.31-12.354-45.154-1.007-1.037-10.34-4.046-20.74-6.687l-18.91-4.802-2.64-17.44c-2.854-18.855-3.463-20.303-14.568-34.582-7.058-9.076-8.104-9.524-22.266-9.524-18.727 0-23.425 1.838-46.201 18.077-26.41 18.828-58.783 51.363-71.725 72.082-16.223 25.971-20.583 57.508-11.32 81.875 2.475 6.509 3.085 5.849 16.685-18.08 19.94-35.085 39.374-55.167 61.96-64.028 9.716-3.812 18.255-6.342 18.975-5.621.721.72-7.999 12.618-19.377 26.44-11.378 13.82-24.546 33.031-29.262 42.69-4.717 9.66-8.575 17.884-8.575 18.276 0 .391 6.65-3.047 14.778-7.642 21.541-12.175 75.171-31.791 78.317-28.646 1.388 1.389-19.412 21.213-29.125 27.758-3.755 2.53-17.4 10.963-30.324 18.738-12.923 7.775-24.08 15.081-24.795 16.237-.713 1.155 5.289 4.044 13.338 6.42 12.798 3.779 17.826 3.952 40.033 1.38 13.968-1.617 36.003-5.58 48.967-8.808 13.185-3.283 23.184-4.712 22.694-3.243-.481 1.444-5.983 6.955-12.227 12.247-8.808 7.466-16.105 10.805-32.567 14.902-23.309 5.8-55.059 10.008-75.756 10.038-15.742.023-16.602 2.376-6.138 16.781 9.721 13.381 14.472 17.009 26.782 20.45 15.117 4.224 60.314 4.03 85.3-.367zm-772.61-163.76c5.937-2.695 10.794-6.153 10.794-7.685 0-5.469-12.966-14.656-28.577-20.25-29.391-10.53-58.365-31.583-70.41-51.16-4.224-6.863-7.68-13.004-7.68-13.645 0-.642 13.429 5.584 29.842 13.836 38.845 19.528 64.47 31.084 65.856 29.699.61-.61-5.773-14.66-14.183-31.224-16.977-33.437-26.282-54.449-24.779-55.952 1.791-1.791 39.093 34.509 52.715 51.298 7.338 9.043 14.437 16.443 15.777 16.443 1.507 0 1.932-14.78 1.114-38.73-1.006-29.425-2.588-42.67-6.587-55.13-2.895-9.019-4.859-16.804-4.363-17.299.495-.495 5.985 5.343 12.2 12.972 10.595 13.006 11.504 15.356 14.554 37.617 1.79 13.06 3.968 34.51 4.84 47.668 1.532 23.114 1.797 23.94 7.822 24.376 9.271.672 28.401-18.298 33.796-33.513 3.647-10.286 3.961-15.703 1.965-33.834-4.536-41.198-8.896-59.61-19.846-83.81-8.023-17.73-30.356-48.86-38.66-53.886a7545.343 7545.343 0 01-21.437-13.074c-19.193-11.74-31.206-12.258-47.321-2.038-10.905 6.915-23.635 19.83-25.723 26.096-.76 2.281-3.353 2.223-10.826-.243-12.746-4.207-44.605-1.693-54.103 4.268-3.816 2.396-11.224 8.604-16.462 13.798l-9.524 9.442v48.234l-11.514 4.397c-7.26 2.773-14.532 8.209-19.683 14.714-7.432 9.387-8.142 11.824-7.878 27.048.394 22.715 6.525 35.296 28.731 58.96 19.173 20.432 37.286 34.452 67.608 52.334 23.284 13.73 41.38 19.004 78.61 22.907 1.396.146 7.396-1.939 13.332-4.633zm556.066-7.915c11.338-2.574 13.013-4.035 24.02-20.953 14.603-22.443 63.829-78.796 88.497-101.31 16.169-14.758 18.613-18.19 20.67-29.028 5.45-28.705-5.431-46.817-31.342-52.169L1064.127 192v-10.383c0-14.129-9.373-31.748-20.196-37.966-6.963-4-12.748-4.92-28.106-4.475l-19.34.562-5.561-12.091c-8.678-18.864-13.136-23.213-26.309-25.666-10.6-1.973-13.362-1.42-25.397 5.087-13.843 7.485-52.828 45.607-59.05 57.744-1.866 3.64-6.474 18.045-10.24 32.013-5.833 21.636-21.045 63.8-29.322 81.27-7.278 15.364-7.855 20.373-4.868 42.233l3.017 22.079 9.708 2.464c13.406 3.403 16.512-.846 20.037-27.41 5.795-43.663 21.346-79.969 42.901-100.158 10.27-9.619 10.128-6.41-1.113 25.237-4.961 13.968-10.152 31.11-11.534 38.095-3.558 17.968-6.59 57.328-4.355 56.536 1.029-.365 11.924-16.839 24.212-36.61 12.288-19.77 29.77-44.323 38.85-54.56 22.099-24.92 48.937-53.149 49.752-52.333 1.203 1.203-5.835 28.406-9.686 37.443-2.084 4.889-11.507 18.032-20.94 29.206-9.432 11.175-20.072 26.604-23.644 34.286-3.572 7.683-9.246 18.368-12.609 23.745-3.363 5.377-8.99 14.927-12.504 21.223l-6.39 11.446 13.566-1.856c23.822-3.258 43.774-14.835 70.47-40.888 13.297-12.977 24.496-23.274 24.888-22.883.392.392-1.765 8.054-4.792 17.026-4.319 12.802-8.552 19.321-19.665 30.282-7.788 7.683-17.018 15.352-20.51 17.043-3.492 1.69-18.635 8.773-33.651 15.738-15.016 6.966-27.302 13.779-27.302 15.14 0 1.363 4.778 6.566 10.616 11.564 11.739 10.048 20.034 11.297 41.958 6.32zM637.262 310.59c-1.399-3.68-4.774-17.639-7.5-31.021-2.727-13.382-7.82-34.617-11.32-47.188-7.729-27.77-9.263-67.403-2.261-58.413 5.136 6.595 18.06 34.35 24.123 51.809 4.848 13.958 21.02 44.721 24.706 47 2.907 1.796 10.545-56.74 10.739-82.3.09-11.874 1.017-23.765 2.06-26.425 1.587-4.043 2.824-2.867 7.541 7.17 8.534 18.155 12.99 38.55 15.029 68.791l1.843 27.35 11.574-14.951c15.592-20.143 40.49-60.257 40.49-65.236 0-2.21 1.01-4.644 2.247-5.408 4.437-2.742 5.653 29.658 1.604 42.763-2.118 6.857-3.851 14.51-3.851 17.008 0 2.498-3.952 12.887-8.781 23.088-9.943 21-15.025 43.85-10.551 47.44 1.553 1.247 6.307 3.01 10.564 3.92 6.936 1.48 9.064.257 20.494-11.771 27.199-28.624 47.746-63.063 60.284-101.041 8.072-24.45 7.253-66.772-1.908-98.614-3.687-12.817-6.06-25.872-5.274-29.011 2.725-10.878-3.784-15.32-21.87-14.923-19.878.435-31.963 2.479-40.66 6.876-6.226 3.147-7.21 2.697-17.778-8.147-25.379-26.042-44.233-35.26-63.616-31.104-10.583 2.27-14.065 4.693-23.65 16.46-6.182 7.589-14.929 19.49-19.437 26.448-4.508 6.957-8.861 12.636-9.674 12.619-.812-.017-6.62-2.97-12.905-6.563-9.971-5.699-13.202-6.31-25.336-4.794-16.273 2.033-34.735 13.787-37.594 23.934-1.008 3.576-1.759 23.644-1.67 44.596.183 42.818 3.31 56.748 21.875 97.453a93361.762 93361.762 0 0014.054 30.801c11.636 25.477 25.66 39.673 46.449 47.017 11.152 3.94 13.167 2.801 9.96-5.633z" clip-path="url(#a)" transform="matrix(.38216 0 0 .38216 75.46 -439.397)"/></svg>